<svg width="396" height="568" viewBox="0 0 396 568" fill="none" xmlns="http://www.w3.org/2000/svg">
<g opacity="0.5">
<path opacity="0.5" d="M8.65574 430.396L50.2394 453.352L62.5703 465.42L61.5208 470.93L43.1558 506.61" stroke="#4D2161" stroke-width="0.5206" stroke-miterlimit="10" stroke-linecap="round" stroke-linejoin="round" stroke-dasharray="2.08 2.08"/>
<path opacity="0.5" d="M59.4216 495.985L54.6992 504.512L35.9406 508.841L28.7258 518.417L28.201 529.436L21.1174 543.472L9.1801 555.54" stroke="#4D2161" stroke-width="0.5206" stroke-miterlimit="10" stroke-linecap="round" stroke-linejoin="round" stroke-dasharray="2.08 2.08"/>
<path opacity="0.5" d="M51.0265 564.067L21.1177 543.472" stroke="#4D2161" stroke-width="0.5206" stroke-miterlimit="10" stroke-linecap="round" stroke-linejoin="round" stroke-dasharray="2.08 2.08"/>
<path opacity="0.5" d="M37.6459 534.42L28.201 529.435" stroke="#4D2161" stroke-width="0.5206" stroke-miterlimit="10" stroke-linecap="round" stroke-linejoin="round" stroke-dasharray="2.08 2.08"/>
<path opacity="0.5" d="M65.5874 539.668L74.7699 523.139L75.4258 515.793L71.0969 511.464L54.6996 504.512" stroke="#4D2161" stroke-width="0.5206" stroke-miterlimit="10" stroke-linecap="round" stroke-linejoin="round" stroke-dasharray="2.08 2.08"/>
<g opacity="0.5">
<path opacity="0.5" d="M302.234 45.9104L299.086 48.6651" stroke="#4D2161" stroke-width="0.5206" stroke-miterlimit="10" stroke-linecap="round" stroke-linejoin="round"/>
<path opacity="0.5" d="M304.07 47.7469L300.922 50.6329" stroke="#4D2161" stroke-width="0.5206" stroke-miterlimit="10" stroke-linecap="round" stroke-linejoin="round"/>
<path opacity="0.5" d="M305.776 49.7149L302.628 52.4697" stroke="#4D2161" stroke-width="0.5206" stroke-miterlimit="10" stroke-linecap="round" stroke-linejoin="round"/>
<path opacity="0.5" d="M307.612 51.5514L304.464 54.4373" stroke="#4D2161" stroke-width="0.5206" stroke-miterlimit="10" stroke-linecap="round" stroke-linejoin="round"/>
<path opacity="0.5" d="M309.449 53.5189L306.301 56.2736" stroke="#4D2161" stroke-width="0.5206" stroke-miterlimit="10" stroke-linecap="round" stroke-linejoin="round"/>
<path opacity="0.5" d="M311.154 55.3558L308.005 58.2417" stroke="#4D2161" stroke-width="0.5206" stroke-miterlimit="10" stroke-linecap="round" stroke-linejoin="round"/>
</g>
<g opacity="0.5">
<path opacity="0.5" d="M333.323 14.0342L330.175 16.789" stroke="#4D2161" stroke-width="0.5206" stroke-miterlimit="10" stroke-linecap="round" stroke-linejoin="round"/>
<path opacity="0.5" d="M335.16 15.8708L332.011 18.7567" stroke="#4D2161" stroke-width="0.5206" stroke-miterlimit="10" stroke-linecap="round" stroke-linejoin="round"/>
<path opacity="0.5" d="M336.996 17.8388L333.848 20.5935" stroke="#4D2161" stroke-width="0.5206" stroke-miterlimit="10" stroke-linecap="round" stroke-linejoin="round"/>
<path opacity="0.5" d="M338.702 19.6746L335.553 22.5605" stroke="#4D2161" stroke-width="0.5206" stroke-miterlimit="10" stroke-linecap="round" stroke-linejoin="round"/>
<path opacity="0.5" d="M340.538 21.6426L337.39 24.3973" stroke="#4D2161" stroke-width="0.5206" stroke-miterlimit="10" stroke-linecap="round" stroke-linejoin="round"/>
<path opacity="0.5" d="M342.375 23.4795L339.226 26.3654" stroke="#4D2161" stroke-width="0.5206" stroke-miterlimit="10" stroke-linecap="round" stroke-linejoin="round"/>
</g>
<path opacity="0.5" d="M348.54 114.255C347.884 113.73 316.664 95.8897 316.664 95.8897" stroke="#4D2161" stroke-width="0.5206" stroke-miterlimit="10" stroke-linecap="round" stroke-linejoin="round" stroke-dasharray="2.08 2.08"/>
<path opacity="0.5" d="M343.031 25.709L376.612 52.076" stroke="#4D2161" stroke-width="0.5206" stroke-miterlimit="10" stroke-linecap="round" stroke-linejoin="round" stroke-dasharray="2.08 2.08"/>
<g opacity="0.5">
<g opacity="0.5">
<g opacity="0.5">
<path opacity="0.5" d="M64.9313 92.6102L66.1119 93.2661" stroke="#4D2161" stroke-width="0.5206" stroke-linecap="round" stroke-linejoin="round"/>
<path opacity="0.5" d="M68.4735 94.5781L94.1846 109.139L121.076 133.932L134.981 143.114L137.474 145.344" stroke="#4D2161" stroke-width="0.5206" stroke-linecap="round" stroke-linejoin="round" stroke-dasharray="2.08 2.08"/>
<path opacity="0.5" d="M138.391 146.262L139.441 147.312" stroke="#4D2161" stroke-width="0.5206" stroke-linecap="round" stroke-linejoin="round"/>
</g>
</g>
<path opacity="0.5" d="M135.768 143.508L187.453 137.474L222.74 171.974L216.312 178.926" stroke="#4D2161" stroke-width="0.5206" stroke-miterlimit="10" stroke-linecap="round" stroke-linejoin="round" stroke-dasharray="2.08 2.08"/>
<path opacity="0.5" d="M320.337 192.044L310.236 183.123L295.151 176.302L253.174 171.317L222.215 171.842" stroke="#4D2161" stroke-width="0.5206" stroke-miterlimit="10" stroke-linecap="round" stroke-linejoin="round" stroke-dasharray="2.08 2.08"/>
<path opacity="0.5" d="M294.757 133.407L296.725 215" stroke="#4D2161" stroke-width="0.5206" stroke-miterlimit="10" stroke-linecap="round" stroke-linejoin="round" stroke-dasharray="2.08 2.08"/>
<path opacity="0.5" d="M320.599 155.707L289.903 232.709" stroke="#4D2161" stroke-width="0.5206" stroke-miterlimit="10" stroke-linecap="round" stroke-linejoin="round" stroke-dasharray="2.08 2.08"/>
<path opacity="0.5" d="M284.787 245.171L197.684 427.903" stroke="#4D2161" stroke-width="0.5206" stroke-miterlimit="10" stroke-linecap="round" stroke-linejoin="round" stroke-dasharray="2.08 2.08"/>
<path opacity="0.5" d="M154.133 517.236L149.935 515.924L148.492 503.594L6.55673 421.869" stroke="#4D2161" stroke-width="0.5206" stroke-miterlimit="10" stroke-linecap="round" stroke-linejoin="round" stroke-dasharray="2.08 2.08"/>
<path opacity="0.5" d="M128.816 564.986L149.936 515.925" stroke="#4D2161" stroke-width="0.5206" stroke-miterlimit="10" stroke-linecap="round" stroke-linejoin="round" stroke-dasharray="2.08 2.08"/>
<path opacity="0.5" d="M240.711 563.412C239.662 562.887 165.152 520.647 165.152 520.647" stroke="#4D2161" stroke-width="0.5206" stroke-miterlimit="10" stroke-linecap="round" stroke-linejoin="round" stroke-dasharray="2.08 2.08"/>
<path opacity="0.5" d="M155.314 563.805L171.843 524.057" stroke="#4D2161" stroke-width="0.5206" stroke-miterlimit="10" stroke-linecap="round" stroke-linejoin="round" stroke-dasharray="2.08 2.08"/>
<path opacity="0.5" d="M305.514 563.28C303.94 562.362 238.219 526.025 210.409 510.678C203.719 507.005 201.358 498.478 205.162 491.919L223.921 458.993" stroke="#4D2161" stroke-width="0.5206" stroke-miterlimit="10" stroke-linecap="round" stroke-linejoin="round" stroke-dasharray="2.08 2.08"/>
<path opacity="0.5" d="M7.21289 360.74C7.21289 359.297 151.116 234.546 151.116 234.546C151.116 234.546 104.154 159.512 49.3213 126.979L0.260408 155.051" stroke="#4D2161" stroke-width="0.5206" stroke-miterlimit="10" stroke-linecap="round" stroke-linejoin="round" stroke-dasharray="2.08 2.08"/>
<path opacity="0.5" d="M247.402 48.4029L253.436 41.1881L206.474 0.260286" stroke="#4D2161" stroke-width="0.5206" stroke-miterlimit="10" stroke-linecap="round" stroke-linejoin="round" stroke-dasharray="2.08 2.08"/>
<path opacity="0.5" d="M245.303 47.8786C244.647 47.7474 202.014 10.2302 202.014 10.2302L199.521 12.1979L186.141 0.523015" stroke="#4D2161" stroke-width="0.5206" stroke-miterlimit="10" stroke-linecap="round" stroke-linejoin="round" stroke-dasharray="2.08 2.08"/>
<path opacity="0.5" d="M181.943 11.2796L171.711 1.57234" stroke="#4D2161" stroke-width="0.5206" stroke-miterlimit="10" stroke-linecap="round" stroke-linejoin="round" stroke-dasharray="2.08 2.08"/>
<path opacity="0.5" d="M229.167 64.9312C229.036 64.5376 217.886 55.2239 217.886 55.2239L190.47 84.2145L214.738 108.876L158.724 165.021" stroke="#4D2161" stroke-width="0.5206" stroke-miterlimit="10" stroke-linecap="round" stroke-linejoin="round" stroke-dasharray="2.08 2.08"/>
<g opacity="0.5">
<path opacity="0.5" d="M282.033 94.3152L282.82 98.513" stroke="#4D2161" stroke-width="0.5206" stroke-miterlimit="10" stroke-linecap="round" stroke-linejoin="round"/>
<path opacity="0.5" d="M284.656 93.7909L285.312 97.9886" stroke="#4D2161" stroke-width="0.5206" stroke-miterlimit="10" stroke-linecap="round" stroke-linejoin="round"/>
<path opacity="0.5" d="M287.149 93.2659L287.936 97.3325" stroke="#4D2161" stroke-width="0.5206" stroke-miterlimit="10" stroke-linecap="round" stroke-linejoin="round"/>
<path opacity="0.5" d="M289.772 92.7411L290.559 96.8076" stroke="#4D2161" stroke-width="0.5206" stroke-miterlimit="10" stroke-linecap="round" stroke-linejoin="round"/>
<path opacity="0.5" d="M292.265 92.2161L293.052 96.2826" stroke="#4D2161" stroke-width="0.5206" stroke-miterlimit="10" stroke-linecap="round" stroke-linejoin="round"/>
<path opacity="0.5" d="M294.888 91.6917L295.675 95.7583" stroke="#4D2161" stroke-width="0.5206" stroke-miterlimit="10" stroke-linecap="round" stroke-linejoin="round"/>
</g>
<path opacity="0.5" d="M389.074 72.8018C388.681 72.8018 285.705 60.3398 285.705 60.3398" stroke="#4D2161" stroke-width="0.5206" stroke-miterlimit="10" stroke-linecap="round" stroke-linejoin="round" stroke-dasharray="2.08 2.08"/>
<path opacity="0.5" d="M386.32 95.365L342.506 67.0303" stroke="#4D2161" stroke-width="0.5206" stroke-miterlimit="10" stroke-linecap="round" stroke-linejoin="round" stroke-dasharray="2.08 2.08"/>
<path opacity="0.5" d="M295.15 93.3973L332.93 139.179" stroke="#4D2161" stroke-width="0.5206" stroke-miterlimit="10" stroke-linecap="round" stroke-linejoin="round" stroke-dasharray="2.08 2.08"/>
<path opacity="0.5" d="M300.135 67.9485C300.529 67.4238 362.183 6.03213 362.183 6.03213L380.023 45.517L389.468 56.536" stroke="#4D2161" stroke-width="0.5206" stroke-miterlimit="10" stroke-linecap="round" stroke-linejoin="round" stroke-dasharray="2.08 2.08"/>
<path opacity="0.5" d="M394.846 16.5267C394.453 16.2643 364.806 12.3289 364.806 12.3289" stroke="#4D2161" stroke-width="0.5206" stroke-miterlimit="10" stroke-linecap="round" stroke-linejoin="round" stroke-dasharray="2.08 2.08"/>
<path opacity="0.5" d="M388.419 22.4296L356.411 102.711" stroke="#4D2161" stroke-width="0.5206" stroke-miterlimit="10" stroke-linecap="round" stroke-linejoin="round" stroke-dasharray="2.08 2.08"/>
<path opacity="0.5" d="M352.344 189.027L376.612 177.352L389.993 162.398" stroke="#4D2161" stroke-width="0.5206" stroke-miterlimit="10" stroke-linecap="round" stroke-linejoin="round" stroke-dasharray="2.08 2.08"/>
<path opacity="0.5" d="M324.141 194.798L327.158 198.471L315.483 232.053L224.182 413.867L179.844 504.118L288.591 567.74" stroke="#4D2161" stroke-width="0.5206" stroke-miterlimit="10" stroke-linecap="round" stroke-linejoin="round" stroke-dasharray="2.08 2.08"/>
<path opacity="0.5" d="M270.751 450.072L315.746 476.702" stroke="#4D2161" stroke-width="0.5206" stroke-miterlimit="10" stroke-linecap="round" stroke-linejoin="round" stroke-dasharray="2.08 2.08"/>
<path opacity="0.5" d="M328.339 457.025L298.299 510.284" stroke="#4D2161" stroke-width="0.5206" stroke-miterlimit="10" stroke-linecap="round" stroke-linejoin="round" stroke-dasharray="2.08 2.08"/>
<path opacity="0.5" d="M286.624 415.572C286.624 415.048 296.069 398.126 296.069 398.126L306.038 392.354L391.305 439.053" stroke="#4D2161" stroke-width="0.5206" stroke-miterlimit="10" stroke-linecap="round" stroke-linejoin="round" stroke-dasharray="2.08 2.08"/>
<path opacity="0.5" d="M302.365 355.886L391.567 405.472" stroke="#4D2161" stroke-width="0.5206" stroke-miterlimit="10" stroke-linecap="round" stroke-linejoin="round" stroke-dasharray="2.08 2.08"/>
<path opacity="0.5" d="M284.132 459.649L279.672 468.045C277.835 471.586 278.884 476.047 282.295 478.145L294.364 486.016C297.643 488.115 298.692 492.444 296.725 495.855L290.691 506.218" stroke="#4D2161" stroke-width="0.5206" stroke-miterlimit="10" stroke-linecap="round" stroke-linejoin="round" stroke-dasharray="2.08 2.08"/>
<path opacity="0.5" d="M69.2607 327.289L89.5934 343.686L152.822 376.087" stroke="#4D2161" stroke-width="0.5206" stroke-miterlimit="10" stroke-linecap="round" stroke-linejoin="round" stroke-dasharray="2.08 2.08"/>
<path opacity="0.5" d="M188.764 345.523L158.199 358.379L150.853 386.845" stroke="#4D2161" stroke-width="0.5206" stroke-miterlimit="10" stroke-linecap="round" stroke-linejoin="round" stroke-dasharray="2.08 2.08"/>
<path opacity="0.5" d="M68.4732 391.173C67.555 390.649 13.7716 377.268 13.7716 377.268" stroke="#4D2161" stroke-width="0.5206" stroke-miterlimit="10" stroke-linecap="round" stroke-linejoin="round" stroke-dasharray="2.08 2.08"/>
<path opacity="0.5" d="M87.1005 309.055L7.34381 381.597" stroke="#4D2161" stroke-width="0.5206" stroke-miterlimit="10" stroke-linecap="round" stroke-linejoin="round" stroke-dasharray="2.08 2.08"/>
<path opacity="0.5" d="M202.932 261.569V268.652L170.269 317.844C170.269 317.844 144.82 307.875 143.77 306.694C142.721 305.514 122.519 280.59 122.519 280.59L108.615 281.639" stroke="#4D2161" stroke-width="0.5206" stroke-miterlimit="10" stroke-linecap="round" stroke-linejoin="round" stroke-dasharray="2.08 2.08"/>
<path opacity="0.5" d="M181.812 316.794L177.483 332.011" stroke="#4D2161" stroke-width="0.5206" stroke-miterlimit="10" stroke-linecap="round" stroke-linejoin="round" stroke-dasharray="2.08 2.08"/>
<path opacity="0.5" d="M170.268 317.844L179.975 321.386" stroke="#4D2161" stroke-width="0.5206" stroke-miterlimit="10" stroke-linecap="round" stroke-linejoin="round" stroke-dasharray="2.08 2.08"/>
<path opacity="0.5" d="M219.198 336.734L238.612 340.932" stroke="#4D2161" stroke-width="0.5206" stroke-miterlimit="10" stroke-linecap="round" stroke-linejoin="round" stroke-dasharray="2.08 2.08"/>
<path opacity="0.5" d="M248.057 274.162L207.523 265.897L202.407 288.723" stroke="#4D2161" stroke-width="0.5206" stroke-miterlimit="10" stroke-linecap="round" stroke-linejoin="round" stroke-dasharray="2.08 2.08"/>
<path opacity="0.5" d="M154.133 310.367C154.133 310.367 197.028 273.768 196.635 273.243C196.241 272.719 162.266 235.595 162.266 235.595" stroke="#4D2161" stroke-width="0.5206" stroke-miterlimit="10" stroke-linecap="round" stroke-linejoin="round" stroke-dasharray="2.08 2.08"/>
<path opacity="0.5" d="M158.462 247.794L166.858 240.842" stroke="#4D2161" stroke-width="0.5206" stroke-miterlimit="10" stroke-linecap="round" stroke-linejoin="round" stroke-dasharray="2.08 2.08"/>
<path opacity="0.5" d="M91.1676 169.744L9.70556 238.35" stroke="#4D2161" stroke-width="0.5206" stroke-miterlimit="10" stroke-linecap="round" stroke-linejoin="round" stroke-dasharray="2.08 2.08"/>
<path opacity="0.5" d="M27.0207 223.002L34.3667 232.972L42.8934 225.888L92.3478 285.312" stroke="#4D2161" stroke-width="0.5206" stroke-miterlimit="10" stroke-linecap="round" stroke-linejoin="round" stroke-dasharray="2.08 2.08"/>
<path opacity="0.5" d="M319.55 301.184L288.591 285.968" stroke="#4D2161" stroke-width="0.5206" stroke-miterlimit="10" stroke-linecap="round" stroke-linejoin="round" stroke-dasharray="2.08 2.08"/>
<path opacity="0.5" d="M332.799 240.449L346.31 229.167L344.343 224.445L356.149 214.475L350.114 209.228L362.445 198.865" stroke="#4D2161" stroke-width="0.5206" stroke-miterlimit="10" stroke-linecap="round" stroke-linejoin="round" stroke-dasharray="2.08 2.08"/>
<path opacity="0.5" d="M172.236 428.691L193.749 434.725L182.861 446.924L163.185 485.229L157.019 486.803L7.60642 404.947" stroke="#4D2161" stroke-width="0.5206" stroke-miterlimit="10" stroke-linecap="round" stroke-linejoin="round" stroke-dasharray="2.08 2.08"/>
<g opacity="0.5">
<path opacity="0.5" d="M147.705 499.526L151.378 501.625" stroke="#4D2161" stroke-width="0.5206" stroke-miterlimit="10" stroke-linecap="round" stroke-linejoin="round"/>
<path opacity="0.5" d="M148.886 497.166L152.559 499.265" stroke="#4D2161" stroke-width="0.5206" stroke-miterlimit="10" stroke-linecap="round" stroke-linejoin="round"/>
<path opacity="0.5" d="M150.066 494.936L153.739 496.903" stroke="#4D2161" stroke-width="0.5206" stroke-miterlimit="10" stroke-linecap="round" stroke-linejoin="round"/>
<path opacity="0.5" d="M151.378 492.575L155.051 494.674" stroke="#4D2161" stroke-width="0.5206" stroke-miterlimit="10" stroke-linecap="round" stroke-linejoin="round"/>
<path opacity="0.5" d="M152.559 490.213L156.232 492.312" stroke="#4D2161" stroke-width="0.5206" stroke-miterlimit="10" stroke-linecap="round" stroke-linejoin="round"/>
<path opacity="0.5" d="M153.74 487.983L157.413 489.951" stroke="#4D2161" stroke-width="0.5206" stroke-miterlimit="10" stroke-linecap="round" stroke-linejoin="round"/>
</g>
<g opacity="0.5">
<path opacity="0.5" d="M165.545 485.36L162.266 487.983" stroke="#4D2161" stroke-width="0.5206" stroke-miterlimit="10" stroke-linecap="round" stroke-linejoin="round"/>
<path opacity="0.5" d="M167.25 487.328L163.971 489.951" stroke="#4D2161" stroke-width="0.5206" stroke-miterlimit="10" stroke-linecap="round" stroke-linejoin="round"/>
<path opacity="0.5" d="M168.956 489.426L165.545 491.919" stroke="#4D2161" stroke-width="0.5206" stroke-miterlimit="10" stroke-linecap="round" stroke-linejoin="round"/>
<path opacity="0.5" d="M170.529 491.394L167.25 494.018" stroke="#4D2161" stroke-width="0.5206" stroke-miterlimit="10" stroke-linecap="round" stroke-linejoin="round"/>
<path opacity="0.5" d="M172.235 493.493L168.825 495.986" stroke="#4D2161" stroke-width="0.5206" stroke-miterlimit="10" stroke-linecap="round" stroke-linejoin="round"/>
<path opacity="0.5" d="M173.94 495.461L170.529 498.084" stroke="#4D2161" stroke-width="0.5206" stroke-miterlimit="10" stroke-linecap="round" stroke-linejoin="round"/>
</g>
<g opacity="0.5">
<path opacity="0.5" d="M171.973 520.123L175.777 521.959" stroke="#4D2161" stroke-width="0.5206" stroke-miterlimit="10" stroke-linecap="round" stroke-linejoin="round"/>
<path opacity="0.5" d="M173.022 517.761L176.827 519.597" stroke="#4D2161" stroke-width="0.5206" stroke-miterlimit="10" stroke-linecap="round" stroke-linejoin="round"/>
<path opacity="0.5" d="M174.072 515.4L177.877 517.237" stroke="#4D2161" stroke-width="0.5206" stroke-miterlimit="10" stroke-linecap="round" stroke-linejoin="round"/>
<path opacity="0.5" d="M175.253 513.039L179.057 514.875" stroke="#4D2161" stroke-width="0.5206" stroke-miterlimit="10" stroke-linecap="round" stroke-linejoin="round"/>
<path opacity="0.5" d="M176.302 510.546L180.106 512.513" stroke="#4D2161" stroke-width="0.5206" stroke-miterlimit="10" stroke-linecap="round" stroke-linejoin="round"/>
<path opacity="0.5" d="M177.352 508.185L181.156 510.153" stroke="#4D2161" stroke-width="0.5206" stroke-miterlimit="10" stroke-linecap="round" stroke-linejoin="round"/>
</g>
<g opacity="0.5">
<path opacity="0.5" d="M296.594 381.597L300.267 383.434" stroke="#4D2161" stroke-width="0.5206" stroke-miterlimit="10" stroke-linecap="round" stroke-linejoin="round"/>
<path opacity="0.5" d="M297.643 379.236L301.447 381.072" stroke="#4D2161" stroke-width="0.5206" stroke-miterlimit="10" stroke-linecap="round" stroke-linejoin="round"/>
<path opacity="0.5" d="M298.693 376.743L302.497 378.711" stroke="#4D2161" stroke-width="0.5206" stroke-miterlimit="10" stroke-linecap="round" stroke-linejoin="round"/>
<path opacity="0.5" d="M299.873 374.383L303.546 376.35" stroke="#4D2161" stroke-width="0.5206" stroke-miterlimit="10" stroke-linecap="round" stroke-linejoin="round"/>
<path opacity="0.5" d="M300.922 372.021L304.726 373.988" stroke="#4D2161" stroke-width="0.5206" stroke-miterlimit="10" stroke-linecap="round" stroke-linejoin="round"/>
<path opacity="0.5" d="M301.972 369.66L305.776 371.496" stroke="#4D2161" stroke-width="0.5206" stroke-miterlimit="10" stroke-linecap="round" stroke-linejoin="round"/>
</g>
<g opacity="0.5">
<path opacity="0.5" d="M282.819 244.122L286.624 246.089" stroke="#4D2161" stroke-width="0.5206" stroke-miterlimit="10" stroke-linecap="round" stroke-linejoin="round"/>
<path opacity="0.5" d="M283.869 241.761L287.673 243.729" stroke="#4D2161" stroke-width="0.5206" stroke-miterlimit="10" stroke-linecap="round" stroke-linejoin="round"/>
<path opacity="0.5" d="M285.05 239.399L288.854 241.236" stroke="#4D2161" stroke-width="0.5206" stroke-miterlimit="10" stroke-linecap="round" stroke-linejoin="round"/>
<path opacity="0.5" d="M286.099 237.038L289.903 238.875" stroke="#4D2161" stroke-width="0.5206" stroke-miterlimit="10" stroke-linecap="round" stroke-linejoin="round"/>
<path opacity="0.5" d="M287.148 234.677L290.952 236.513" stroke="#4D2161" stroke-width="0.5206" stroke-miterlimit="10" stroke-linecap="round" stroke-linejoin="round"/>
<path opacity="0.5" d="M288.329 232.316L292.133 234.152" stroke="#4D2161" stroke-width="0.5206" stroke-miterlimit="10" stroke-linecap="round" stroke-linejoin="round"/>
</g>
<path opacity="0.5" d="M7.47542 28.9885L60.3405 77.787L54.6998 83.9524" stroke="#4D2161" stroke-width="0.5206" stroke-miterlimit="10" stroke-linecap="round" stroke-linejoin="round" stroke-dasharray="2.08 2.08"/>
<path opacity="0.5" d="M249.5 365.2L288.329 358.903L307.875 364.282L390.648 407.702" stroke="#4D2161" stroke-width="0.5206" stroke-miterlimit="10" stroke-linecap="round" stroke-linejoin="round" stroke-dasharray="2.08 2.08"/>
<path opacity="0.5" d="M283.475 447.712C283.475 447.581 284 446.531 284.787 445.219C287.804 440.234 294.363 438.398 299.479 441.284L354.443 472.242C359.69 475.259 361.527 481.818 358.51 487.065L356.017 491.657" stroke="#4D2161" stroke-width="0.5206" stroke-miterlimit="10" stroke-linecap="round" stroke-linejoin="round" stroke-dasharray="2.08 2.08"/>
</g>
<path opacity="0.5" d="M376.875 463.584C372.808 471.061 363.363 473.685 355.886 469.618L305.251 441.546C297.774 437.479 295.15 428.035 299.217 420.557C303.283 413.08 312.728 410.457 320.206 414.523L370.841 442.595C378.318 446.793 380.941 456.107 376.875 463.584Z" stroke="#4D2161" stroke-width="0.5543" stroke-miterlimit="10" stroke-linecap="round" stroke-linejoin="round" stroke-dasharray="2.22 2.22"/>
</g>
</svg>
