<svg width="396" height="591" viewBox="0 0 396 591" fill="none" xmlns="http://www.w3.org/2000/svg">
<g opacity="0.5">
<path opacity="0.5" d="M8.66507 447.829L50.2936 471.716L62.6377 484.273L61.5871 490.006L43.2023 527.133" stroke="#4D2161" stroke-width="0.5206" stroke-miterlimit="10" stroke-linecap="round" stroke-linejoin="round" stroke-dasharray="2.08 2.08"/>
<path opacity="0.5" d="M59.4857 516.077L54.7581 524.949L35.9793 529.453L28.7567 539.418L28.2314 550.883L21.1401 565.488L9.19 578.046" stroke="#4D2161" stroke-width="0.5206" stroke-miterlimit="10" stroke-linecap="round" stroke-linejoin="round" stroke-dasharray="2.08 2.08"/>
<path opacity="0.5" d="M51.0815 586.918L21.1405 565.488" stroke="#4D2161" stroke-width="0.5206" stroke-miterlimit="10" stroke-linecap="round" stroke-linejoin="round" stroke-dasharray="2.08 2.08"/>
<path opacity="0.5" d="M37.6865 556.07L28.2314 550.883" stroke="#4D2161" stroke-width="0.5206" stroke-miterlimit="10" stroke-linecap="round" stroke-linejoin="round" stroke-dasharray="2.08 2.08"/>
<path opacity="0.5" d="M65.6581 561.53L74.8505 544.331L75.5071 536.687L71.1736 532.183L54.7585 524.949" stroke="#4D2161" stroke-width="0.5206" stroke-miterlimit="10" stroke-linecap="round" stroke-linejoin="round" stroke-dasharray="2.08 2.08"/>
<g opacity="0.5">
<path opacity="0.5" d="M302.56 47.7608L299.408 50.6272" stroke="#4D2161" stroke-width="0.5206" stroke-miterlimit="10" stroke-linecap="round" stroke-linejoin="round"/>
<path opacity="0.5" d="M304.398 49.6717L301.247 52.6746" stroke="#4D2161" stroke-width="0.5206" stroke-miterlimit="10" stroke-linecap="round" stroke-linejoin="round"/>
<path opacity="0.5" d="M306.106 51.7195L302.954 54.5859" stroke="#4D2161" stroke-width="0.5206" stroke-miterlimit="10" stroke-linecap="round" stroke-linejoin="round"/>
<path opacity="0.5" d="M307.944 53.6304L304.792 56.6333" stroke="#4D2161" stroke-width="0.5206" stroke-miterlimit="10" stroke-linecap="round" stroke-linejoin="round"/>
<path opacity="0.5" d="M309.783 55.6776L306.631 58.544" stroke="#4D2161" stroke-width="0.5206" stroke-miterlimit="10" stroke-linecap="round" stroke-linejoin="round"/>
<path opacity="0.5" d="M311.489 57.589L308.338 60.5919" stroke="#4D2161" stroke-width="0.5206" stroke-miterlimit="10" stroke-linecap="round" stroke-linejoin="round"/>
</g>
<g opacity="0.5">
<path opacity="0.5" d="M333.683 14.5927L330.531 17.4591" stroke="#4D2161" stroke-width="0.5206" stroke-miterlimit="10" stroke-linecap="round" stroke-linejoin="round"/>
<path opacity="0.5" d="M335.521 16.5037L332.369 19.5066" stroke="#4D2161" stroke-width="0.5206" stroke-miterlimit="10" stroke-linecap="round" stroke-linejoin="round"/>
<path opacity="0.5" d="M337.359 18.5515L334.208 21.4179" stroke="#4D2161" stroke-width="0.5206" stroke-miterlimit="10" stroke-linecap="round" stroke-linejoin="round"/>
<path opacity="0.5" d="M339.067 20.4617L335.915 23.4646" stroke="#4D2161" stroke-width="0.5206" stroke-miterlimit="10" stroke-linecap="round" stroke-linejoin="round"/>
<path opacity="0.5" d="M340.905 22.5095L337.754 25.3759" stroke="#4D2161" stroke-width="0.5206" stroke-miterlimit="10" stroke-linecap="round" stroke-linejoin="round"/>
<path opacity="0.5" d="M342.744 24.4208L339.592 27.4237" stroke="#4D2161" stroke-width="0.5206" stroke-miterlimit="10" stroke-linecap="round" stroke-linejoin="round"/>
</g>
<path opacity="0.5" d="M348.916 118.875C348.259 118.329 317.005 99.7657 317.005 99.7657" stroke="#4D2161" stroke-width="0.5206" stroke-miterlimit="10" stroke-linecap="round" stroke-linejoin="round" stroke-dasharray="2.08 2.08"/>
<path opacity="0.5" d="M343.4 26.7407L377.018 54.1763" stroke="#4D2161" stroke-width="0.5206" stroke-miterlimit="10" stroke-linecap="round" stroke-linejoin="round" stroke-dasharray="2.08 2.08"/>
<g opacity="0.5">
<g opacity="0.5">
<g opacity="0.5">
<path opacity="0.5" d="M65.0013 96.3533L66.1832 97.0358" stroke="#4D2161" stroke-width="0.5206" stroke-linecap="round" stroke-linejoin="round"/>
<path opacity="0.5" d="M68.5473 98.4009L94.2861 113.552L121.207 139.35L135.127 148.904L137.622 151.225" stroke="#4D2161" stroke-width="0.5206" stroke-linecap="round" stroke-linejoin="round" stroke-dasharray="2.08 2.08"/>
<path opacity="0.5" d="M138.541 152.18L139.591 153.272" stroke="#4D2161" stroke-width="0.5206" stroke-linecap="round" stroke-linejoin="round"/>
</g>
</g>
<path opacity="0.5" d="M135.914 149.314L187.655 143.035L222.98 178.933L216.545 186.168" stroke="#4D2161" stroke-width="0.5206" stroke-miterlimit="10" stroke-linecap="round" stroke-linejoin="round" stroke-dasharray="2.08 2.08"/>
<path opacity="0.5" d="M320.683 199.817L310.571 190.535L295.469 183.437L253.447 178.25L222.455 178.796" stroke="#4D2161" stroke-width="0.5206" stroke-miterlimit="10" stroke-linecap="round" stroke-linejoin="round" stroke-dasharray="2.08 2.08"/>
<path opacity="0.5" d="M295.075 138.803L297.044 223.703" stroke="#4D2161" stroke-width="0.5206" stroke-miterlimit="10" stroke-linecap="round" stroke-linejoin="round" stroke-dasharray="2.08 2.08"/>
<path opacity="0.5" d="M320.945 162.007L290.216 242.13" stroke="#4D2161" stroke-width="0.5206" stroke-miterlimit="10" stroke-linecap="round" stroke-linejoin="round" stroke-dasharray="2.08 2.08"/>
<path opacity="0.5" d="M285.094 255.098L197.897 445.236" stroke="#4D2161" stroke-width="0.5206" stroke-miterlimit="10" stroke-linecap="round" stroke-linejoin="round" stroke-dasharray="2.08 2.08"/>
<path opacity="0.5" d="M154.299 538.189L150.097 536.824L148.652 523.994L6.56379 438.957" stroke="#4D2161" stroke-width="0.5206" stroke-miterlimit="10" stroke-linecap="round" stroke-linejoin="round" stroke-dasharray="2.08 2.08"/>
<path opacity="0.5" d="M128.955 587.874L150.097 536.824" stroke="#4D2161" stroke-width="0.5206" stroke-miterlimit="10" stroke-linecap="round" stroke-linejoin="round" stroke-dasharray="2.08 2.08"/>
<path opacity="0.5" d="M240.971 586.236C239.92 585.69 165.33 541.739 165.33 541.739" stroke="#4D2161" stroke-width="0.5206" stroke-miterlimit="10" stroke-linecap="round" stroke-linejoin="round" stroke-dasharray="2.08 2.08"/>
<path opacity="0.5" d="M155.482 586.645L172.028 545.287" stroke="#4D2161" stroke-width="0.5206" stroke-miterlimit="10" stroke-linecap="round" stroke-linejoin="round" stroke-dasharray="2.08 2.08"/>
<path opacity="0.5" d="M305.843 586.099C304.268 585.144 238.476 547.335 210.636 531.365C203.939 527.543 201.575 518.671 205.383 511.846L224.162 477.586" stroke="#4D2161" stroke-width="0.5206" stroke-miterlimit="10" stroke-linecap="round" stroke-linejoin="round" stroke-dasharray="2.08 2.08"/>
<path opacity="0.5" d="M7.22066 375.35C7.22066 373.849 151.279 244.042 151.279 244.042C151.279 244.042 104.266 165.966 49.3745 132.115L0.260689 161.325" stroke="#4D2161" stroke-width="0.5206" stroke-miterlimit="10" stroke-linecap="round" stroke-linejoin="round" stroke-dasharray="2.08 2.08"/>
<path opacity="0.5" d="M247.669 50.3544L253.709 42.8471L206.697 0.260567" stroke="#4D2161" stroke-width="0.5206" stroke-miterlimit="10" stroke-linecap="round" stroke-linejoin="round" stroke-dasharray="2.08 2.08"/>
<path opacity="0.5" d="M245.567 49.8088C244.911 49.6723 202.232 10.6346 202.232 10.6346L199.736 12.6821L186.342 0.533967" stroke="#4D2161" stroke-width="0.5206" stroke-miterlimit="10" stroke-linecap="round" stroke-linejoin="round" stroke-dasharray="2.08 2.08"/>
<path opacity="0.5" d="M182.139 11.7264L171.896 1.62573" stroke="#4D2161" stroke-width="0.5206" stroke-miterlimit="10" stroke-linecap="round" stroke-linejoin="round" stroke-dasharray="2.08 2.08"/>
<path opacity="0.5" d="M229.414 67.5525C229.283 67.143 218.121 57.4518 218.121 57.4518L190.675 87.6173L214.969 113.278L158.896 171.699" stroke="#4D2161" stroke-width="0.5206" stroke-miterlimit="10" stroke-linecap="round" stroke-linejoin="round" stroke-dasharray="2.08 2.08"/>
<g opacity="0.5">
<path opacity="0.5" d="M282.337 98.1275L283.125 102.495" stroke="#4D2161" stroke-width="0.5206" stroke-miterlimit="10" stroke-linecap="round" stroke-linejoin="round"/>
<path opacity="0.5" d="M284.963 97.5818L285.62 101.95" stroke="#4D2161" stroke-width="0.5206" stroke-miterlimit="10" stroke-linecap="round" stroke-linejoin="round"/>
<path opacity="0.5" d="M287.458 97.0357L288.246 101.267" stroke="#4D2161" stroke-width="0.5206" stroke-miterlimit="10" stroke-linecap="round" stroke-linejoin="round"/>
<path opacity="0.5" d="M290.085 96.4895L290.873 100.721" stroke="#4D2161" stroke-width="0.5206" stroke-miterlimit="10" stroke-linecap="round" stroke-linejoin="round"/>
<path opacity="0.5" d="M292.58 95.9434L293.368 100.175" stroke="#4D2161" stroke-width="0.5206" stroke-miterlimit="10" stroke-linecap="round" stroke-linejoin="round"/>
<path opacity="0.5" d="M295.206 95.3977L295.994 99.6291" stroke="#4D2161" stroke-width="0.5206" stroke-miterlimit="10" stroke-linecap="round" stroke-linejoin="round"/>
</g>
<path opacity="0.5" d="M389.494 75.7421C389.1 75.7421 286.013 62.775 286.013 62.775" stroke="#4D2161" stroke-width="0.5206" stroke-miterlimit="10" stroke-linecap="round" stroke-linejoin="round" stroke-dasharray="2.08 2.08"/>
<path opacity="0.5" d="M386.736 99.2198L342.875 69.7367" stroke="#4D2161" stroke-width="0.5206" stroke-miterlimit="10" stroke-linecap="round" stroke-linejoin="round" stroke-dasharray="2.08 2.08"/>
<path opacity="0.5" d="M295.468 97.1724L333.289 144.809" stroke="#4D2161" stroke-width="0.5206" stroke-miterlimit="10" stroke-linecap="round" stroke-linejoin="round" stroke-dasharray="2.08 2.08"/>
<path opacity="0.5" d="M300.459 70.6922C300.853 70.1462 362.574 6.26632 362.574 6.26632L380.433 47.3514L389.888 58.8171" stroke="#4D2161" stroke-width="0.5206" stroke-miterlimit="10" stroke-linecap="round" stroke-linejoin="round" stroke-dasharray="2.08 2.08"/>
<path opacity="0.5" d="M395.272 17.1862C394.878 16.9132 365.2 12.8184 365.2 12.8184" stroke="#4D2161" stroke-width="0.5206" stroke-miterlimit="10" stroke-linecap="round" stroke-linejoin="round" stroke-dasharray="2.08 2.08"/>
<path opacity="0.5" d="M388.837 23.3283L356.795 106.864" stroke="#4D2161" stroke-width="0.5206" stroke-miterlimit="10" stroke-linecap="round" stroke-linejoin="round" stroke-dasharray="2.08 2.08"/>
<path opacity="0.5" d="M352.724 196.678L377.019 184.53L390.413 168.969" stroke="#4D2161" stroke-width="0.5206" stroke-miterlimit="10" stroke-linecap="round" stroke-linejoin="round" stroke-dasharray="2.08 2.08"/>
<path opacity="0.5" d="M324.49 202.683L327.51 206.505L315.823 241.448L224.424 430.63L180.038 524.539L288.902 590.739" stroke="#4D2161" stroke-width="0.5206" stroke-miterlimit="10" stroke-linecap="round" stroke-linejoin="round" stroke-dasharray="2.08 2.08"/>
<path opacity="0.5" d="M271.043 468.303L316.086 496.012" stroke="#4D2161" stroke-width="0.5206" stroke-miterlimit="10" stroke-linecap="round" stroke-linejoin="round" stroke-dasharray="2.08 2.08"/>
<path opacity="0.5" d="M328.693 475.538L298.621 530.955" stroke="#4D2161" stroke-width="0.5206" stroke-miterlimit="10" stroke-linecap="round" stroke-linejoin="round" stroke-dasharray="2.08 2.08"/>
<path opacity="0.5" d="M286.933 432.405C286.933 431.859 296.388 414.251 296.388 414.251L306.368 408.245L391.726 456.838" stroke="#4D2161" stroke-width="0.5206" stroke-miterlimit="10" stroke-linecap="round" stroke-linejoin="round" stroke-dasharray="2.08 2.08"/>
<path opacity="0.5" d="M302.691 370.3L391.989 421.895" stroke="#4D2161" stroke-width="0.5206" stroke-miterlimit="10" stroke-linecap="round" stroke-linejoin="round" stroke-dasharray="2.08 2.08"/>
<path opacity="0.5" d="M284.438 478.268L279.973 487.004C278.135 490.689 279.185 495.33 282.599 497.514L294.681 505.704C297.964 507.888 299.014 512.392 297.045 515.941L291.004 526.724" stroke="#4D2161" stroke-width="0.5206" stroke-miterlimit="10" stroke-linecap="round" stroke-linejoin="round" stroke-dasharray="2.08 2.08"/>
<path opacity="0.5" d="M69.3353 340.543L89.6899 357.605L152.986 391.32" stroke="#4D2161" stroke-width="0.5206" stroke-miterlimit="10" stroke-linecap="round" stroke-linejoin="round" stroke-dasharray="2.08 2.08"/>
<path opacity="0.5" d="M188.968 359.517L158.37 372.893L151.016 402.513" stroke="#4D2161" stroke-width="0.5206" stroke-miterlimit="10" stroke-linecap="round" stroke-linejoin="round" stroke-dasharray="2.08 2.08"/>
<path opacity="0.5" d="M68.547 407.017C67.6278 406.471 13.7865 392.548 13.7865 392.548" stroke="#4D2161" stroke-width="0.5206" stroke-miterlimit="10" stroke-linecap="round" stroke-linejoin="round" stroke-dasharray="2.08 2.08"/>
<path opacity="0.5" d="M87.1944 321.571L7.35173 397.053" stroke="#4D2161" stroke-width="0.5206" stroke-miterlimit="10" stroke-linecap="round" stroke-linejoin="round" stroke-dasharray="2.08 2.08"/>
<path opacity="0.5" d="M203.151 272.16V279.53L170.452 330.716C170.452 330.716 144.976 320.342 143.925 319.114C142.875 317.885 122.652 291.951 122.652 291.951L108.732 293.043" stroke="#4D2161" stroke-width="0.5206" stroke-miterlimit="10" stroke-linecap="round" stroke-linejoin="round" stroke-dasharray="2.08 2.08"/>
<path opacity="0.5" d="M182.008 329.624L177.674 345.457" stroke="#4D2161" stroke-width="0.5206" stroke-miterlimit="10" stroke-linecap="round" stroke-linejoin="round" stroke-dasharray="2.08 2.08"/>
<path opacity="0.5" d="M170.452 330.716L180.169 334.401" stroke="#4D2161" stroke-width="0.5206" stroke-miterlimit="10" stroke-linecap="round" stroke-linejoin="round" stroke-dasharray="2.08 2.08"/>
<path opacity="0.5" d="M219.434 350.371L238.869 354.739" stroke="#4D2161" stroke-width="0.5206" stroke-miterlimit="10" stroke-linecap="round" stroke-linejoin="round" stroke-dasharray="2.08 2.08"/>
<path opacity="0.5" d="M248.325 285.263L207.747 276.664L202.625 300.414" stroke="#4D2161" stroke-width="0.5206" stroke-miterlimit="10" stroke-linecap="round" stroke-linejoin="round" stroke-dasharray="2.08 2.08"/>
<path opacity="0.5" d="M154.299 322.936C154.299 322.936 197.241 284.853 196.847 284.307C196.453 283.761 162.441 245.133 162.441 245.133" stroke="#4D2161" stroke-width="0.5206" stroke-miterlimit="10" stroke-linecap="round" stroke-linejoin="round" stroke-dasharray="2.08 2.08"/>
<path opacity="0.5" d="M158.633 257.827L167.037 250.593" stroke="#4D2161" stroke-width="0.5206" stroke-miterlimit="10" stroke-linecap="round" stroke-linejoin="round" stroke-dasharray="2.08 2.08"/>
<path opacity="0.5" d="M91.2659 176.613L9.71602 248" stroke="#4D2161" stroke-width="0.5206" stroke-miterlimit="10" stroke-linecap="round" stroke-linejoin="round" stroke-dasharray="2.08 2.08"/>
<path opacity="0.5" d="M27.0498 232.03L34.4038 242.403L42.9396 235.033L92.4473 296.865" stroke="#4D2161" stroke-width="0.5206" stroke-miterlimit="10" stroke-linecap="round" stroke-linejoin="round" stroke-dasharray="2.08 2.08"/>
<path opacity="0.5" d="M319.894 313.381L288.902 297.547" stroke="#4D2161" stroke-width="0.5206" stroke-miterlimit="10" stroke-linecap="round" stroke-linejoin="round" stroke-dasharray="2.08 2.08"/>
<path opacity="0.5" d="M333.157 250.184L346.684 238.445L344.714 233.531L356.533 223.158L350.492 217.698L362.836 206.915" stroke="#4D2161" stroke-width="0.5206" stroke-miterlimit="10" stroke-linecap="round" stroke-linejoin="round" stroke-dasharray="2.08 2.08"/>
<path opacity="0.5" d="M172.422 446.055L193.958 452.334L183.058 465.028L163.36 504.884L157.188 506.522L7.61462 421.349" stroke="#4D2161" stroke-width="0.5206" stroke-miterlimit="10" stroke-linecap="round" stroke-linejoin="round" stroke-dasharray="2.08 2.08"/>
<g opacity="0.5">
<path opacity="0.5" d="M147.864 519.762L151.541 521.946" stroke="#4D2161" stroke-width="0.5206" stroke-miterlimit="10" stroke-linecap="round" stroke-linejoin="round"/>
<path opacity="0.5" d="M149.046 517.305L152.723 519.489" stroke="#4D2161" stroke-width="0.5206" stroke-miterlimit="10" stroke-linecap="round" stroke-linejoin="round"/>
<path opacity="0.5" d="M150.228 514.985L153.905 517.032" stroke="#4D2161" stroke-width="0.5206" stroke-miterlimit="10" stroke-linecap="round" stroke-linejoin="round"/>
<path opacity="0.5" d="M151.541 512.528L155.218 514.712" stroke="#4D2161" stroke-width="0.5206" stroke-miterlimit="10" stroke-linecap="round" stroke-linejoin="round"/>
<path opacity="0.5" d="M152.723 510.071L156.4 512.255" stroke="#4D2161" stroke-width="0.5206" stroke-miterlimit="10" stroke-linecap="round" stroke-linejoin="round"/>
<path opacity="0.5" d="M153.905 507.751L157.582 509.798" stroke="#4D2161" stroke-width="0.5206" stroke-miterlimit="10" stroke-linecap="round" stroke-linejoin="round"/>
</g>
<g opacity="0.5">
<path opacity="0.5" d="M165.724 505.021L162.441 507.751" stroke="#4D2161" stroke-width="0.5206" stroke-miterlimit="10" stroke-linecap="round" stroke-linejoin="round"/>
<path opacity="0.5" d="M167.43 507.068L164.147 509.798" stroke="#4D2161" stroke-width="0.5206" stroke-miterlimit="10" stroke-linecap="round" stroke-linejoin="round"/>
<path opacity="0.5" d="M169.138 509.252L165.724 511.845" stroke="#4D2161" stroke-width="0.5206" stroke-miterlimit="10" stroke-linecap="round" stroke-linejoin="round"/>
<path opacity="0.5" d="M170.714 511.3L167.431 514.03" stroke="#4D2161" stroke-width="0.5206" stroke-miterlimit="10" stroke-linecap="round" stroke-linejoin="round"/>
<path opacity="0.5" d="M172.421 513.484L169.007 516.077" stroke="#4D2161" stroke-width="0.5206" stroke-miterlimit="10" stroke-linecap="round" stroke-linejoin="round"/>
<path opacity="0.5" d="M174.128 515.531L170.714 518.261" stroke="#4D2161" stroke-width="0.5206" stroke-miterlimit="10" stroke-linecap="round" stroke-linejoin="round"/>
</g>
<g opacity="0.5">
<path opacity="0.5" d="M172.159 541.192L175.967 543.103" stroke="#4D2161" stroke-width="0.5206" stroke-miterlimit="10" stroke-linecap="round" stroke-linejoin="round"/>
<path opacity="0.5" d="M173.209 538.735L177.017 540.646" stroke="#4D2161" stroke-width="0.5206" stroke-miterlimit="10" stroke-linecap="round" stroke-linejoin="round"/>
<path opacity="0.5" d="M174.26 536.278L178.068 538.189" stroke="#4D2161" stroke-width="0.5206" stroke-miterlimit="10" stroke-linecap="round" stroke-linejoin="round"/>
<path opacity="0.5" d="M175.442 533.822L179.25 535.732" stroke="#4D2161" stroke-width="0.5206" stroke-miterlimit="10" stroke-linecap="round" stroke-linejoin="round"/>
<path opacity="0.5" d="M176.492 531.228L180.3 533.275" stroke="#4D2161" stroke-width="0.5206" stroke-miterlimit="10" stroke-linecap="round" stroke-linejoin="round"/>
<path opacity="0.5" d="M177.543 528.771L181.351 530.819" stroke="#4D2161" stroke-width="0.5206" stroke-miterlimit="10" stroke-linecap="round" stroke-linejoin="round"/>
</g>
<g opacity="0.5">
<path opacity="0.5" d="M296.913 397.053L300.59 398.964" stroke="#4D2161" stroke-width="0.5206" stroke-miterlimit="10" stroke-linecap="round" stroke-linejoin="round"/>
<path opacity="0.5" d="M297.964 394.596L301.772 396.507" stroke="#4D2161" stroke-width="0.5206" stroke-miterlimit="10" stroke-linecap="round" stroke-linejoin="round"/>
<path opacity="0.5" d="M299.015 392.002L302.823 394.05" stroke="#4D2161" stroke-width="0.5206" stroke-miterlimit="10" stroke-linecap="round" stroke-linejoin="round"/>
<path opacity="0.5" d="M300.196 389.546L303.873 391.593" stroke="#4D2161" stroke-width="0.5206" stroke-miterlimit="10" stroke-linecap="round" stroke-linejoin="round"/>
<path opacity="0.5" d="M301.247 387.088L305.055 389.136" stroke="#4D2161" stroke-width="0.5206" stroke-miterlimit="10" stroke-linecap="round" stroke-linejoin="round"/>
<path opacity="0.5" d="M302.298 384.632L306.106 386.543" stroke="#4D2161" stroke-width="0.5206" stroke-miterlimit="10" stroke-linecap="round" stroke-linejoin="round"/>
</g>
<g opacity="0.5">
<path opacity="0.5" d="M283.124 254.006L286.933 256.053" stroke="#4D2161" stroke-width="0.5206" stroke-miterlimit="10" stroke-linecap="round" stroke-linejoin="round"/>
<path opacity="0.5" d="M284.175 251.549L287.983 253.596" stroke="#4D2161" stroke-width="0.5206" stroke-miterlimit="10" stroke-linecap="round" stroke-linejoin="round"/>
<path opacity="0.5" d="M285.357 249.092L289.165 251.002" stroke="#4D2161" stroke-width="0.5206" stroke-miterlimit="10" stroke-linecap="round" stroke-linejoin="round"/>
<path opacity="0.5" d="M286.407 246.635L290.215 248.546" stroke="#4D2161" stroke-width="0.5206" stroke-miterlimit="10" stroke-linecap="round" stroke-linejoin="round"/>
<path opacity="0.5" d="M287.458 244.178L291.266 246.088" stroke="#4D2161" stroke-width="0.5206" stroke-miterlimit="10" stroke-linecap="round" stroke-linejoin="round"/>
<path opacity="0.5" d="M288.64 241.721L292.448 243.632" stroke="#4D2161" stroke-width="0.5206" stroke-miterlimit="10" stroke-linecap="round" stroke-linejoin="round"/>
</g>
<path opacity="0.5" d="M7.48348 30.1532L60.4055 80.9295L54.7588 87.3448" stroke="#4D2161" stroke-width="0.5206" stroke-miterlimit="10" stroke-linecap="round" stroke-linejoin="round" stroke-dasharray="2.08 2.08"/>
<path opacity="0.5" d="M249.769 379.991L288.64 373.439L308.207 379.035L391.07 424.216" stroke="#4D2161" stroke-width="0.5206" stroke-miterlimit="10" stroke-linecap="round" stroke-linejoin="round" stroke-dasharray="2.08 2.08"/>
<path opacity="0.5" d="M283.781 465.847C283.781 465.71 284.306 464.618 285.094 463.253C288.114 458.067 294.68 456.156 299.802 459.159L354.825 491.372C360.078 494.511 361.916 501.336 358.896 506.796L356.401 511.573" stroke="#4D2161" stroke-width="0.5206" stroke-miterlimit="10" stroke-linecap="round" stroke-linejoin="round" stroke-dasharray="2.08 2.08"/>
</g>
<path opacity="0.5" d="M377.281 482.362C373.21 490.143 363.755 492.873 356.27 488.641L305.58 459.431C298.095 455.2 295.469 445.372 299.539 437.592C303.61 429.812 313.065 427.082 320.551 431.313L371.24 460.523C378.726 464.891 381.352 474.582 377.281 482.362Z" stroke="#4D2161" stroke-width="0.5543" stroke-miterlimit="10" stroke-linecap="round" stroke-linejoin="round" stroke-dasharray="2.22 2.22"/>
</g>
</svg>
