<svg width="321" height="223" viewBox="0 0 321 223" fill="none" xmlns="http://www.w3.org/2000/svg">
<path d="M7.85178 69.5535L0 76.1625L6.68873 84.7477L14.5405 78.1387L7.85178 69.5535Z" fill="#E2E0E1"/>
<path d="M27.0381 71.9677L19.5298 78.9947L26.6416 87.2042L34.1498 80.1772L27.0381 71.9677Z" fill="#E2E0E1"/>
<path d="M47.5168 39.374L38.0584 48.2262L42.9751 53.9019L52.4336 45.0497L47.5168 39.374Z" fill="#E2E0E1"/>
<path d="M232.522 175.536L313.485 223V177.582L237.377 174.308L232.522 175.536Z" fill="#E2E0E1"/>
<path d="M268.738 64.6498L272.544 59.6033L299.969 77.7434C299.969 77.7434 301.937 73.1061 302.462 73.2425C302.987 73.3789 320.308 83.6082 320.308 83.6082L317.552 94.7923L268.738 64.6498Z" fill="#E2E0E1"/>
<path d="M287.372 4.7737L291.833 0L298.919 7.36512L294.327 12.1388L287.372 4.7737Z" fill="#E2E0E1"/>
<path d="M259.816 111.704L259.422 131.754L272.413 132.572L271.757 150.576L240.395 150.167L239.345 169.398L316.765 173.081L314.01 151.94L282.386 151.121L283.042 132.709L297.082 133.254L297.214 112.386L259.816 111.704Z" fill="#E2E0E1"/>
<path d="M188.694 199.541L194.862 203.496L199.061 196.54L193.024 192.994L188.694 199.541Z" fill="#E2E0E1"/>
<path d="M215.726 184.811L210.477 194.767L215.726 198.041L220.843 188.084L215.726 184.811Z" fill="#E2E0E1"/>
<path d="M3.28049 172.399L12.4659 183.583L17.8459 178.4L8.79174 167.762L3.28049 172.399Z" fill="#E2E0E1"/>
<path d="M140.274 71.3322L144.211 74.6056L152.609 66.4221L148.279 62.4668L140.274 71.3322Z" fill="#E2E0E1"/>
<path d="M244.989 51.5557L273.857 25.2322L278.318 29.3239L267.427 38.8713L269.264 43.2358L254.961 56.0566L244.989 51.5557Z" fill="#E2E0E1"/>
</svg>
