<svg width="417" height="574" viewBox="0 0 417 574" fill="none" xmlns="http://www.w3.org/2000/svg">
<path d="M295.929 75.5551L300.389 118.973L328.984 146.388L335.543 144.289L356.268 121.465C356.268 121.465 393.259 48.2713 392.734 47.4842C392.209 46.8284 363.483 1.18039 363.483 1.18039L301.832 63.7496L295.929 75.5551Z" fill="#F9F9F9"/>
<path d="M321.567 372.336L313.807 386.93L355.852 409.285L363.612 394.691L321.567 372.336Z" fill="#F9F9F9"/>
<path d="M367.936 395.778L360.177 410.372L375.697 418.624L383.457 404.03L367.936 395.778Z" fill="#F9F9F9"/>
<path d="M385.183 403.825L375.391 422.239L407.008 439.051L416.8 420.637L385.183 403.825Z" fill="#F9F9F9"/>
<path d="M264.971 2.75462L262.61 25.0539L265.365 29.7761L277.17 27.6774L301.306 0L264.971 2.75462Z" fill="#F9F9F9"/>
<path d="M373.845 3.2793C378.698 8.91971 384.601 22.4305 384.601 22.4305L401.129 25.3163C401.129 25.3163 405.457 4.59102 405.326 4.32868C405.195 3.93516 373.845 3.2793 373.845 3.2793Z" fill="#F9F9F9"/>
<path d="M400.867 37.5155L394.308 47.2223L401.26 50.7639L400.867 37.5155Z" fill="#F9F9F9"/>
<path d="M386.569 154.783L394.832 193.61C394.832 193.61 404.146 197.152 404.146 196.89C404.146 196.496 408.343 139.83 408.343 139.174C408.343 138.649 402.572 130.385 402.572 130.385L386.569 154.783Z" fill="#F9F9F9"/>
<path d="M389.323 466.318C385.256 473.795 375.812 476.418 368.335 472.352L317.703 444.281C310.226 440.214 307.602 430.77 311.669 423.293C315.735 415.816 325.179 413.193 332.656 417.259L383.289 445.33C390.766 449.528 393.389 458.841 389.323 466.318Z" fill="#F9F9F9"/>
<path d="M20.8601 429.852C22.303 430.508 141.276 498.193 141.276 498.193L150.59 517.082L133.406 568.239C133.406 568.239 16.2691 574.929 14.8262 571.256C13.3833 567.583 -0.25861 491.241 0.00373464 489.142C0.134907 487.043 20.8601 429.852 20.8601 429.852Z" fill="#F9F9F9"/>
<path d="M354.3 565.222C354.3 565.222 348.135 559.581 348.004 559.057C347.873 558.532 348.135 551.974 348.135 551.974C348.135 551.974 349.447 536.889 363.351 537.02C366.63 537.02 367.68 538.069 372.271 549.219C373.451 552.105 376.075 554.203 379.092 554.466C381.715 554.728 384.601 553.679 386.437 548.957C387.618 546.071 386.962 542.66 384.863 540.299L373.451 527.182C370.041 523.247 369.516 517.475 372.271 513.146L405.851 458.71L411.754 558.663C411.754 558.663 403.096 575.585 399.03 573.879C394.963 572.043 354.3 565.222 354.3 565.222Z" fill="#F9F9F9"/>
<path d="M208.699 461.989L214.733 460.415L237.557 473.663L226.801 494.126L231.785 496.618L229.555 501.472L199.254 483.632L208.699 461.989Z" fill="#F9F9F9"/>
<path d="M230.342 427.753C230.342 427.753 241.492 394.828 247.657 394.566C247.657 394.566 252.642 394.697 257.364 397.714C261.955 400.731 263.529 406.765 260.906 411.619L254.478 423.555C251.199 429.72 244.247 433.262 237.426 431.95C234.671 431.294 232.179 430.114 230.342 427.753Z" fill="#F9F9F9"/>
<path d="M261.43 369.119L257.101 379.613L268.776 383.941L281.237 375.022L287.927 379.35L297.634 376.596L305.504 367.02L303.274 362.692L261.43 369.119Z" fill="#F9F9F9"/>
<path d="M284.516 338.95L278.614 335.146L333.575 221.944L337.904 221.288L343.544 228.502L334.493 236.635L284.516 338.95Z" fill="#F9F9F9"/>
<path d="M280.581 493.34C283.729 495.963 287.533 497.668 291.337 499.505C293.83 500.685 296.715 501.866 299.208 500.685C302.093 499.373 303.012 495.438 301.831 492.421C300.782 489.404 298.289 487.174 295.797 485.076C291.337 481.14 284.647 476.287 278.482 479.829C272.973 482.715 277.039 490.323 280.581 493.34Z" fill="#F9F9F9"/>
<path d="M307.21 484.157C311.407 485.469 315.998 485.206 320.458 484.419C323.475 483.895 326.361 483.108 329.247 482.189C330.69 481.665 332.133 481.14 332.92 479.828C334.1 477.861 332.788 475.237 330.821 474.057C328.853 472.876 326.492 472.876 324.131 472.876C321.901 472.876 319.409 472.876 317.441 471.827C314.687 470.384 313.375 467.367 310.883 465.662C308.39 463.956 304.849 463.694 301.963 464.481C296.585 466.055 296.454 473.925 298.815 477.992C300.782 481.009 303.93 483.108 307.21 484.157Z" fill="#F9F9F9"/>
</svg>
