<svg width="147" height="147" viewBox="0 0 147 147" fill="none" xmlns="http://www.w3.org/2000/svg">
<g clip-path="url(#clip0_316_1196)">
<path d="M79.8096 67.1904L73.5129 22.9583L67.1903 67.1904L29.2808 73.513L67.1903 79.8097L73.5129 124.042L79.8096 79.8097L117.719 73.513L79.8096 67.1904Z" fill="#FFE577"/>
<path d="M108.158 101.783L106.318 88.9048L104.478 101.783L93.4653 103.623L104.478 105.463L106.318 118.315L108.158 105.463L119.17 103.623L108.158 101.783Z" fill="#FFE577"/>
<path d="M130.468 138.734L129.535 132.308L128.628 138.734L123.109 139.641L128.628 140.574L129.535 147L130.468 140.574L135.987 139.641L130.468 138.734Z" fill="#FFE577"/>
<path d="M7.35907 123.109L6.42623 116.683L5.5193 123.109L0 124.042L5.5193 124.949L6.42623 131.375L7.35907 124.949L12.8525 124.042L7.35907 123.109Z" fill="#FFE577"/>
<path d="M38.8425 45.2168L40.6823 58.0952L42.5221 45.2168L53.5348 43.377L42.5221 41.5373L40.6823 28.6848L38.8425 41.5373L27.8298 43.377L38.8425 45.2168Z" fill="#FFE577"/>
<path d="M16.532 8.266L17.4648 14.6922L18.3718 8.266L23.8911 7.35907L18.3718 6.42623L17.4648 0L16.532 6.42623L11.0127 7.35907L16.532 8.266Z" fill="#FFE577"/>
<path d="M139.641 23.8911L140.574 30.3173L141.481 23.8911L147 22.9583L141.481 22.0514L140.574 15.6251L139.641 22.0514L134.147 22.9583L139.641 23.8911Z" fill="#FFE577"/>
</g>
<defs>
<clipPath id="clip0_316_1196">
<rect width="147" height="147" fill="white"/>
</clipPath>
</defs>
</svg>
