<svg width="70" height="143" viewBox="0 0 70 143" fill="none" xmlns="http://www.w3.org/2000/svg">
<path d="M10.0217 0.532171C9.48378 -0.102339 8.53331 -0.180613 7.8988 0.357341C7.26428 0.895296 7.18601 1.84577 7.72397 2.48028L10.0217 0.532171ZM67.6156 70.7925L68.6322 71.9039L69.7025 70.9249L68.7645 69.8185L67.6156 70.7925ZM2.84795 130.037L1.83133 128.926L3.30383e-05 130.601L2.33141 131.452L2.84795 130.037ZM7.72397 2.48028L66.4667 71.7666L68.7645 69.8185L10.0217 0.532171L7.72397 2.48028ZM66.599 69.6812L1.83133 128.926L3.86457 131.149L68.6322 71.9039L66.599 69.6812ZM2.33141 131.452L33.9621 143L34.9952 140.17L3.3645 128.622L2.33141 131.452Z" fill="#112C2D"/>
</svg>
