<svg width="397" height="577" viewBox="0 0 397 577" fill="none" xmlns="http://www.w3.org/2000/svg">
<path d="M211.635 112.563C210.847 113.351 210.847 114.664 211.766 115.451L245.371 147.219L250.097 184.763L240.514 227.688L206.909 192.508L214.916 184.631C215.704 183.844 215.704 182.531 214.916 181.743C214.129 180.956 212.816 180.956 212.028 181.743L190.237 203.141L142.848 153.389C142.061 152.601 140.748 152.601 139.96 153.257C139.173 154.045 139.173 155.358 139.829 156.145L187.743 206.422L184.067 214.299L146.655 247.642L114.494 209.573C114.362 209.442 114.362 209.31 114.231 209.048C114.1 208.916 113.968 208.785 113.706 208.654L90.0771 180.693C89.6833 180.299 89.1582 180.037 88.6331 179.905C88.108 179.905 87.5829 180.037 87.1891 180.431L46.1011 215.874C43.2131 218.368 42.8193 222.569 45.1822 225.457L60.9348 245.41C63.2977 248.429 67.4984 248.954 70.6489 246.591L112.262 213.117L143.505 250.267L50.1705 333.362L39.5375 320.103L69.73 294.243C74.3245 290.305 74.9808 283.479 71.174 278.622L40.8502 240.815C40.4564 240.422 40.0626 240.159 39.5375 240.028L21.0282 237.796C19.9781 237.665 18.9279 238.453 18.7966 239.634C18.6653 240.815 19.453 241.734 20.6344 241.866L38.3561 243.966L47.2825 254.993L12.8894 285.185C10.7891 287.023 10.5265 290.305 12.233 292.536L47.5451 336.381L4.6193 374.581C3.83167 375.369 3.70039 376.682 4.48802 377.469C4.88184 377.863 5.40693 378.126 6.06328 378.126C6.58837 378.126 6.98218 377.994 7.376 377.6L80.7568 312.227L186.037 350.296L183.149 364.473C182.886 365.523 183.674 366.705 184.724 366.836C184.855 366.836 184.986 366.836 185.118 366.836C186.037 366.836 186.955 366.18 187.087 365.261L201.92 293.587C202.183 292.536 201.395 291.355 200.345 291.224C199.295 290.961 198.114 291.749 197.982 292.799L186.824 346.227L84.1699 309.077L94.9341 299.494C96.5094 301.857 100.316 306.32 106.88 306.32C107.142 306.32 107.274 306.32 107.536 306.32C107.93 306.32 108.455 306.189 108.718 305.795L115.938 299.888C116.856 299.231 116.988 297.919 116.2 297C115.544 296.081 114.231 295.95 113.312 296.737L106.617 302.251C101.498 302.119 98.741 298.181 97.9534 296.868L165.164 237.009L188.662 263.788C190.631 266.02 193.519 267.201 196.407 267.201C198.77 267.201 201.133 266.413 203.102 264.707L212.028 256.962C214.129 255.124 215.441 252.63 215.573 249.873C215.704 247.116 214.785 244.36 212.947 242.391L188.399 215.48L192.075 207.473L204.152 195.658L239.595 232.808L231.194 270.614C230.931 271.664 231.588 272.846 232.769 273.108C232.9 273.108 233.032 273.108 233.163 273.108C234.082 273.108 235.001 272.452 235.132 271.533L254.166 185.681C254.166 185.419 254.166 185.156 254.166 185.025L249.309 146.431C249.309 145.906 249.047 145.512 248.653 145.25L214.391 112.957C213.735 111.644 212.422 111.776 211.635 112.563ZM68.286 243.703C66.9733 244.622 65.2667 244.36 64.3478 243.178L48.5953 223.225C47.6764 222.044 47.8076 220.206 48.9891 219.287L88.5018 185.156L109.768 210.36L68.286 243.703ZM15.2523 289.911C14.8585 289.386 14.8585 288.73 15.3836 288.205L49.6454 258.143L68.286 281.51C70.6489 284.529 70.2551 288.861 67.3671 291.355L37.1746 317.084L15.2523 289.911ZM209.928 245.016C211.109 246.198 211.635 247.904 211.503 249.479C211.372 251.186 210.584 252.63 209.403 253.811L200.476 261.556C197.982 263.788 194.044 263.525 191.812 260.9L168.315 234.121L185.905 218.499L209.928 245.016Z" fill="white" stroke="#BBB4B5" stroke-width="0.5206" stroke-miterlimit="10"/>
<path d="M394.495 326.405L373.623 325.88L374.017 297.262L388.326 303.17C389.376 303.563 390.557 303.038 391.082 302.119C391.476 301.069 390.951 299.888 390.032 299.494L373.623 292.668C373.361 292.537 373.229 292.537 372.967 292.537C372.967 292.537 372.967 292.537 372.836 292.537H371.392L325.578 290.961C324.79 290.961 324.134 291.355 323.74 292.012L308.381 319.972C308.25 320.235 308.119 320.497 308.119 320.891L306.412 356.335L297.092 357.253L255.741 336.25L327.022 185.288L354.195 198.152L369.816 214.955L334.242 243.966C333.323 244.622 333.192 245.935 333.979 246.854C334.373 247.379 335.029 247.642 335.555 247.642C335.948 247.642 336.473 247.51 336.867 247.117L347.106 238.847L371.26 259.062C371.654 259.325 372.048 259.587 372.573 259.587C373.098 259.587 373.755 259.325 374.148 258.8C374.936 257.881 374.805 256.699 373.886 255.912L350.257 236.09L359.052 228.87L385.438 257.093C385.832 257.487 386.357 257.75 386.882 257.75C387.407 257.75 387.932 257.618 388.326 257.225C389.113 256.437 389.245 255.124 388.457 254.337L362.203 226.376L388.719 204.716C389.638 204.06 389.77 202.747 388.982 201.828C388.326 200.909 387.013 200.778 386.094 201.565L372.836 212.33L356.821 195.133C356.689 195.002 356.427 194.739 356.164 194.739L328.597 181.743L330.172 178.33C332.798 172.686 331.354 165.991 326.628 161.921L324.265 159.821L354.195 110.069C354.72 109.15 354.458 107.838 353.539 107.312C352.62 106.787 351.307 107.05 350.782 107.969L321.246 157.064L283.177 124.509C281.733 123.328 279.633 123.459 278.32 124.903C277.139 126.347 277.27 128.447 278.714 129.76L322.296 167.041C324.659 169.141 325.447 172.423 324.003 175.311L249.309 333.362L247.734 336.775L165.689 510.316L152.431 496.664C152.168 496.401 151.906 496.27 151.643 496.007L124.995 481.174C125.52 481.043 125.914 480.649 126.176 480.124L130.64 471.328C130.771 471.197 130.771 471.066 130.771 470.935L150.068 393.222C150.199 392.697 150.068 392.172 149.805 391.647C149.543 391.122 149.018 390.859 148.493 390.728L86.4011 376.288C85.351 376.025 84.1695 376.682 83.907 377.863C83.6445 378.913 84.3008 380.095 85.4822 380.357L145.605 394.272L126.833 469.753L122.501 478.417C122.238 478.942 122.238 479.336 122.37 479.861L74.3242 453.213L92.7022 417.507C94.1462 414.882 94.2774 411.731 93.3585 408.843C92.3084 405.955 90.3393 403.724 87.5826 402.411L69.0733 394.01C68.0231 393.484 66.8417 394.01 66.3166 395.06C65.7915 396.11 66.3166 397.291 67.3668 397.816L85.8761 406.218C87.5826 407.005 88.8953 408.449 89.5517 410.156C90.208 411.994 90.0768 413.832 89.1579 415.538L70.7798 451.244L5.27534 414.75C3.56881 413.832 1.59974 414.488 0.680837 416.063C-0.238064 417.77 0.418293 419.739 1.99355 420.658L147.836 501.783L162.407 516.748L162.539 516.88L137.991 568.863C137.203 570.57 137.86 572.67 139.566 573.458C140.091 573.72 140.485 573.852 141.01 573.852C142.323 573.852 143.504 573.064 144.161 571.882L166.346 525.018L258.892 576.346C259.417 576.608 259.942 576.739 260.598 576.739C261.78 576.739 262.961 576.083 263.618 575.033C264.537 573.326 263.88 571.357 262.305 570.438L169.365 518.849L232.769 384.558L257.973 397.291L221.873 459.383C221.348 460.302 221.611 461.614 222.661 462.139C222.924 462.271 223.317 462.402 223.711 462.402C224.368 462.402 225.155 462.008 225.549 461.352L241.827 433.391L267.818 448.356L249.834 481.043C247.734 484.849 249.047 489.575 252.722 491.807L297.88 519.768C299.192 520.555 300.636 520.949 302.212 520.949C302.868 520.949 303.656 520.818 304.312 520.687C306.412 520.161 308.25 518.586 309.3 516.748L327.678 482.618L348.944 494.826C351.045 496.007 352.489 497.977 353.014 500.208C353.539 502.571 353.276 504.934 351.963 506.903L331.354 539.852C331.223 539.983 331.223 540.115 331.091 540.246L321.508 567.944C321.115 568.994 321.771 570.176 322.821 570.57C323.084 570.701 323.215 570.701 323.478 570.701C324.265 570.701 325.184 570.176 325.447 569.257L334.898 541.821L355.377 509.135C357.214 506.115 357.739 502.702 356.952 499.289C356.164 495.876 353.933 493.119 350.913 491.282L273.332 446.649L286.459 422.758C286.984 421.708 286.59 420.526 285.671 420.001C284.621 419.476 283.44 419.87 282.915 420.789L269.787 444.549L243.796 429.584L262.699 397.16C262.961 396.635 263.093 396.11 262.83 395.585C262.699 395.06 262.305 394.535 261.78 394.272L234.607 380.62L253.772 339.926L295.517 361.06C295.779 361.192 296.173 361.323 296.436 361.323C296.567 361.323 296.567 361.323 296.698 361.323L308.381 360.141L385.832 362.898H385.963C387.013 362.898 387.932 361.979 388.063 360.929C388.063 359.748 387.276 358.829 386.094 358.829L310.482 356.072L312.057 321.416L326.628 295.031L369.948 296.475L369.554 325.748L356.033 325.486C354.983 325.486 353.933 326.405 353.933 327.455C353.933 328.636 354.851 329.555 355.902 329.555L370.604 329.949H372.179L394.233 330.474C395.283 330.474 396.202 329.555 396.333 328.505C396.465 327.324 395.546 326.405 394.495 326.405ZM271.494 450.194L324.134 480.517L305.756 514.779C305.231 515.829 304.312 516.486 303.262 516.748C302.212 517.011 301.03 516.88 300.111 516.223L254.954 488.262C253.116 487.081 252.46 484.849 253.51 482.88L271.494 450.194Z" fill="white" stroke="#BBB4B5" stroke-width="0.5206" stroke-miterlimit="10"/>
<path d="M275.695 124.115C276.089 124.509 276.614 124.64 277.139 124.64C277.664 124.64 278.189 124.378 278.583 123.984C279.37 123.196 279.37 121.884 278.451 121.096L226.731 71.7378L243.271 54.0162L270.706 76.3323C271.494 76.9887 272.676 76.9887 273.463 76.201L343.431 3.73916C344.219 2.95154 344.219 1.63882 343.431 0.851192C342.643 0.063563 341.331 0.063563 340.543 0.851192L272.019 72.1316L244.452 49.8155C243.665 49.1591 242.352 49.1591 241.695 49.9467L222.53 70.5564C221.742 71.344 221.742 72.6567 222.661 73.4443L275.695 124.115Z" fill="white" stroke="#BBB4B5" stroke-width="0.5206" stroke-miterlimit="10"/>
<path d="M182.36 11.0906L67.8917 134.88C67.104 135.667 67.2353 136.98 68.0229 137.768C68.4167 138.161 68.9418 138.293 69.4669 138.293C69.992 138.293 70.5171 138.03 70.9109 137.636L185.38 13.8473L207.302 33.538C210.715 36.6885 211.109 41.9394 208.221 45.615L200.607 54.804C199.951 55.7229 199.951 56.9043 200.87 57.692C201.264 57.9545 201.657 58.2171 202.182 58.2171C202.708 58.2171 203.364 57.9545 203.758 57.4294L211.371 48.2404C215.703 42.9896 215.178 35.1133 210.059 30.5188L177.241 0.982671C176.453 0.195042 175.14 0.326314 174.353 1.11394C173.565 1.90157 173.697 3.21429 174.484 4.00192L182.36 11.0906Z" fill="white" stroke="#BBB4B5" stroke-width="0.5206" stroke-miterlimit="10"/>
<path d="M46.626 67.1435C47.1511 67.1435 47.6761 66.881 48.2012 66.4872L105.829 3.87065C106.617 3.08302 106.486 1.7703 105.698 0.982671C104.911 0.195042 103.598 0.326314 102.81 1.11394L45.182 63.7305C44.3944 64.5181 44.5256 65.8308 45.3133 66.6184C45.7071 67.0123 46.1009 67.1435 46.626 67.1435Z" fill="white" stroke="#BBB4B5" stroke-width="0.5206" stroke-miterlimit="10"/>
<path d="M20.7657 128.972L4.09422 139.736C3.17532 140.393 2.91278 141.574 3.43786 142.624C3.83168 143.281 4.48803 143.543 5.14439 143.543C5.53821 143.543 5.93202 143.412 6.19456 143.281L24.4413 131.466L40.0626 128.841L59.8846 161.133C61.5912 164.021 60.6723 167.96 57.7843 169.797L5.66948 202.221C4.75058 202.878 4.35676 204.059 5.01312 205.109C5.40694 205.766 6.06329 206.028 6.71965 206.028C7.11346 206.028 7.50728 205.897 7.76982 205.766L59.8846 173.342C64.7417 170.323 66.1857 164.021 63.2977 159.164L43.8695 126.609L67.8922 102.849C68.6798 102.061 68.6798 100.749 67.8922 99.9609L53.8461 85.3898C53.0585 84.6022 51.7458 84.6022 50.9582 85.3898C50.1705 86.1774 50.1705 87.4902 50.9582 88.2778L63.6915 101.536L40.9815 123.984C40.719 123.984 40.3252 124.115 40.0626 124.246C39.8001 124.377 39.5375 124.64 39.4063 124.903L24.8351 127.265L4.22549 104.949C3.43786 104.162 2.12515 104.03 1.33752 104.818C0.54989 105.606 0.418615 106.918 1.20624 107.706L20.7657 128.972Z" fill="white" stroke="#BBB4B5" stroke-width="0.5206" stroke-miterlimit="10"/>
</svg>
