<svg width="397" height="600" viewBox="0 0 397 600" fill="none" xmlns="http://www.w3.org/2000/svg">
<path d="M211.734 117.044C210.946 117.863 210.946 119.228 211.865 120.047L245.486 153.082L250.214 192.124L240.627 236.762L207.006 200.178L215.017 191.987C215.805 191.168 215.805 189.803 215.017 188.984C214.229 188.165 212.916 188.165 212.128 188.984L190.326 211.235L142.915 159.498C142.127 158.679 140.814 158.679 140.026 159.362C139.238 160.181 139.238 161.546 139.894 162.365L187.831 214.648L184.154 222.838L146.724 257.511L114.547 217.924C114.416 217.787 114.416 217.651 114.285 217.378C114.153 217.241 114.022 217.105 113.759 216.968L90.1192 187.892C89.7252 187.482 89.1999 187.209 88.6746 187.073C88.1492 187.073 87.6239 187.209 87.2299 187.619L46.1226 224.476C43.2333 227.07 42.8393 231.438 45.2033 234.441L60.9633 255.191C63.3273 258.331 67.5299 258.877 70.6819 256.419L112.315 221.61L143.572 260.242L50.1939 346.652L39.556 332.864L69.7626 305.972C74.3593 301.877 75.0159 294.778 71.2073 289.728L40.8693 250.413C40.4753 250.003 40.0813 249.73 39.556 249.594L21.038 247.273C19.9873 247.137 18.9367 247.956 18.8053 249.184C18.674 250.413 19.462 251.369 20.644 251.505L38.374 253.689L47.3046 265.156L12.8953 296.553C10.794 298.464 10.5313 301.877 12.2387 304.197L47.5673 349.791L4.62134 389.516C3.83335 390.335 3.70201 391.7 4.49001 392.519C4.88401 392.928 5.40934 393.201 6.06601 393.201C6.59134 393.201 6.98534 393.065 7.37934 392.655L80.7946 324.674L186.124 364.261L183.234 379.004C182.972 380.096 183.76 381.325 184.81 381.462C184.942 381.462 185.073 381.462 185.204 381.462C186.124 381.462 187.043 380.779 187.174 379.823L202.015 305.29C202.278 304.198 201.49 302.969 200.439 302.832C199.388 302.559 198.206 303.378 198.075 304.471L186.912 360.03L84.2092 321.398L94.9786 311.432C96.5546 313.89 100.363 318.531 106.93 318.531C107.193 318.531 107.324 318.531 107.587 318.531C107.981 318.531 108.506 318.394 108.769 317.985L115.992 311.842C116.911 311.159 117.043 309.794 116.255 308.839C115.598 307.883 114.285 307.747 113.365 308.566L106.667 314.299C101.545 314.163 98.7872 310.067 97.9992 308.702L165.242 246.454L188.75 274.302C190.72 276.623 193.61 277.851 196.499 277.851C198.863 277.851 201.227 277.032 203.197 275.258L212.128 267.204C214.229 265.292 215.542 262.699 215.674 259.832C215.805 256.965 214.886 254.099 213.047 252.051L188.488 224.067L192.165 215.74L204.248 203.454L239.708 242.086L231.302 281.401C231.04 282.493 231.696 283.721 232.878 283.994C233.01 283.994 233.141 283.994 233.272 283.994C234.192 283.994 235.111 283.312 235.242 282.356L254.286 193.079C254.286 192.806 254.286 192.533 254.286 192.397L249.426 152.263C249.426 151.717 249.164 151.308 248.77 151.035L214.492 117.453C213.835 116.088 212.522 116.225 211.734 117.044ZM68.3179 253.416C67.0046 254.372 65.2973 254.099 64.3779 252.87L48.618 232.121C47.6986 230.892 47.8299 228.981 49.0119 228.026L88.5432 192.533L109.819 218.743L68.3179 253.416ZM15.2593 301.467C14.8653 300.921 14.8653 300.239 15.3907 299.693L49.6686 268.432L68.3179 292.731C70.6819 295.87 70.2879 300.375 67.3986 302.969L37.192 329.725L15.2593 301.467ZM210.026 254.781C211.208 256.01 211.734 257.784 211.602 259.423C211.471 261.197 210.683 262.699 209.501 263.927L200.57 271.981C198.075 274.302 194.135 274.029 191.902 271.299L168.394 243.451L185.992 227.207L210.026 254.781Z" fill="white" stroke="#BBB4B5" stroke-width="0.5206" stroke-miterlimit="10"/>
<path d="M394.681 339.417L373.799 338.871L374.193 309.112L388.508 315.255C389.559 315.664 390.741 315.118 391.266 314.163C391.66 313.071 391.135 311.842 390.215 311.433L373.799 304.334C373.536 304.198 373.405 304.198 373.142 304.198C373.142 304.198 373.142 304.198 373.011 304.198H371.566L325.731 302.56C324.943 302.56 324.286 302.969 323.892 303.652L308.526 332.728C308.395 333.001 308.263 333.274 308.263 333.684L306.556 370.541L297.231 371.497L255.861 349.655L327.175 192.67L354.361 206.048L369.99 223.521L334.399 253.689C333.479 254.372 333.348 255.737 334.136 256.693C334.53 257.239 335.187 257.512 335.712 257.512C336.106 257.512 336.631 257.375 337.025 256.966L347.269 248.366L371.435 269.388C371.829 269.661 372.223 269.934 372.748 269.934C373.273 269.934 373.93 269.661 374.324 269.115C375.112 268.159 374.981 266.931 374.061 266.112L350.421 245.499L359.221 237.991L385.619 267.34C386.013 267.75 386.538 268.023 387.063 268.023C387.589 268.023 388.114 267.886 388.508 267.477C389.296 266.658 389.427 265.293 388.639 264.474L362.373 235.397L388.902 212.873C389.821 212.191 389.953 210.826 389.165 209.87C388.508 208.915 387.195 208.778 386.275 209.597L373.011 220.791L356.988 202.908C356.857 202.772 356.594 202.499 356.331 202.499L328.751 188.984L330.327 185.435C332.954 179.565 331.509 172.603 326.781 168.371L324.417 166.187L354.361 114.45C354.887 113.495 354.624 112.13 353.705 111.584C352.785 111.038 351.472 111.311 350.947 112.266L321.397 163.321L283.31 129.466C281.865 128.238 279.764 128.374 278.451 129.876C277.269 131.377 277.4 133.562 278.845 134.927L322.447 173.695C324.811 175.879 325.599 179.292 324.155 182.295L249.426 346.652L247.85 350.201L165.767 530.666L152.502 516.469C152.239 516.196 151.977 516.059 151.714 515.786L125.054 500.361C125.579 500.224 125.973 499.815 126.236 499.269L130.701 490.123C130.832 489.986 130.832 489.85 130.832 489.713L150.138 408.9C150.27 408.354 150.138 407.808 149.876 407.262C149.613 406.716 149.087 406.443 148.562 406.306L86.4416 391.29C85.3909 391.017 84.2089 391.7 83.9463 392.928C83.6836 394.021 84.3403 395.249 85.5223 395.522L145.673 409.992L126.892 488.485L122.558 497.494C122.296 498.04 122.296 498.45 122.427 498.996L74.3589 471.284L92.7456 434.154C94.1902 431.424 94.3216 428.148 93.4022 425.145C92.3516 422.141 90.3816 419.821 87.6236 418.456L69.1056 409.719C68.0549 409.173 66.8729 409.719 66.3476 410.811C65.8223 411.903 66.3476 413.132 67.3983 413.678L85.9163 422.414C87.6236 423.233 88.9369 424.735 89.5936 426.51C90.2502 428.421 90.1189 430.332 89.1996 432.106L70.8129 469.237L5.27769 431.287C3.57036 430.332 1.60037 431.014 0.681034 432.653C-0.238298 434.427 0.418367 436.475 1.99437 437.43L147.906 521.793L162.483 537.355L162.615 537.491L138.056 591.549C137.268 593.323 137.924 595.508 139.632 596.327C140.157 596.6 140.551 596.736 141.076 596.736C142.39 596.736 143.572 595.917 144.228 594.689L166.423 545.955L259.013 599.33C259.539 599.603 260.064 599.739 260.721 599.739C261.903 599.739 263.085 599.057 263.741 597.965C264.661 596.19 264.004 594.142 262.428 593.187L169.444 539.539L232.878 399.89L258.094 413.132L221.977 477.7C221.452 478.656 221.715 480.021 222.765 480.567C223.028 480.704 223.422 480.84 223.816 480.84C224.473 480.84 225.261 480.431 225.655 479.748L241.94 450.672L267.944 466.234L249.951 500.224C247.85 504.183 249.163 509.097 252.841 511.418L298.019 540.495C299.333 541.314 300.777 541.723 302.353 541.723C303.01 541.723 303.798 541.587 304.455 541.45C306.556 540.904 308.395 539.266 309.445 537.355L327.832 501.863L349.108 514.558C351.209 515.786 352.654 517.834 353.179 520.155C353.705 522.612 353.442 525.069 352.129 527.117L331.509 561.38C331.378 561.517 331.378 561.653 331.247 561.79L321.659 590.593C321.265 591.685 321.922 592.914 322.973 593.323C323.235 593.46 323.367 593.46 323.629 593.46C324.417 593.46 325.337 592.914 325.599 591.958L335.055 563.428L355.543 529.437C357.382 526.298 357.907 522.748 357.119 519.199C356.331 515.65 354.099 512.783 351.078 510.872L273.46 464.459L286.593 439.614C287.119 438.522 286.725 437.294 285.805 436.748C284.755 436.202 283.573 436.611 283.047 437.567L269.914 462.275L243.91 446.713L262.822 412.995C263.085 412.449 263.216 411.903 262.953 411.357C262.822 410.811 262.428 410.265 261.903 409.992L234.717 395.795L253.891 353.477L295.655 375.455C295.918 375.592 296.312 375.728 296.575 375.728C296.706 375.728 296.706 375.728 296.837 375.728L308.526 374.5L386.013 377.366H386.144C387.195 377.366 388.114 376.411 388.245 375.319C388.245 374.09 387.457 373.135 386.275 373.135L310.627 370.268L312.203 334.23L326.781 306.791L370.121 308.293L369.727 338.734L356.2 338.461C355.149 338.461 354.099 339.417 354.099 340.509C354.099 341.738 355.018 342.693 356.069 342.693L370.778 343.103H372.354L394.418 343.649C395.469 343.649 396.388 342.693 396.519 341.601C396.651 340.373 395.731 339.417 394.681 339.417ZM271.621 468.145L324.286 499.678L305.899 535.307C305.374 536.399 304.455 537.082 303.404 537.355C302.353 537.628 301.171 537.491 300.252 536.809L255.073 507.732C253.235 506.504 252.578 504.183 253.629 502.136L271.621 468.145Z" fill="white" stroke="#BBB4B5" stroke-width="0.5206" stroke-miterlimit="10"/>
<path d="M275.824 129.057C276.218 129.466 276.743 129.603 277.269 129.603C277.794 129.603 278.319 129.33 278.713 128.92C279.501 128.101 279.501 126.736 278.582 125.917L226.837 74.5897L243.385 56.161L270.833 79.3675C271.621 80.05 272.803 80.05 273.591 79.231L343.592 3.87808C344.38 3.05902 344.38 1.69394 343.592 0.874882C342.804 0.0558293 341.491 0.0558293 340.703 0.874882L272.147 74.9992L244.567 51.7927C243.779 51.1101 242.465 51.1101 241.809 51.9292L222.634 73.3611C221.846 74.1801 221.846 75.5452 222.765 76.3643L275.824 129.057Z" fill="white" stroke="#BBB4B5" stroke-width="0.5206" stroke-miterlimit="10"/>
<path d="M182.446 11.5228L67.9235 140.251C67.1355 141.07 67.2669 142.435 68.0549 143.254C68.4489 143.663 68.9742 143.8 69.4995 143.8C70.0249 143.8 70.5502 143.527 70.9442 143.117L185.467 14.3894L207.399 34.8658C210.814 38.142 211.208 43.6023 208.319 47.4246L200.701 56.9802C200.045 57.9358 200.045 59.1643 200.964 59.9834C201.358 60.2564 201.752 60.5294 202.277 60.5294C202.803 60.5294 203.459 60.2564 203.853 59.7104L211.471 50.1548C215.805 44.6944 215.279 36.5039 210.157 31.7261L177.324 1.01157C176.536 0.192521 175.223 0.329031 174.435 1.14808C173.647 1.96714 173.778 3.33223 174.566 4.15128L182.446 11.5228Z" fill="white" stroke="#BBB4B5" stroke-width="0.5206" stroke-miterlimit="10"/>
<path d="M46.6477 69.812C47.1731 69.812 47.6984 69.539 48.2237 69.1295L105.879 4.01477C106.667 3.19572 106.536 1.83063 105.748 1.01157C104.96 0.192521 103.646 0.329031 102.858 1.14808L45.2031 66.2628C44.4151 67.0818 44.5464 68.4469 45.3344 69.266C45.7284 69.6755 46.1224 69.812 46.6477 69.812Z" fill="white" stroke="#BBB4B5" stroke-width="0.5206" stroke-miterlimit="10"/>
<path d="M20.7753 134.107L4.09602 145.301C3.17669 145.984 2.91402 147.212 3.43935 148.304C3.83335 148.987 4.49002 149.26 5.14668 149.26C5.54068 149.26 5.93468 149.123 6.19735 148.987L24.4527 136.701L40.0813 133.971L59.9126 167.552C61.6199 170.555 60.7006 174.65 57.8113 176.562L5.67202 210.279C4.75269 210.962 4.35869 212.19 5.01535 213.282C5.40935 213.965 6.06602 214.238 6.72268 214.238C7.11668 214.238 7.51068 214.102 7.77335 213.965L59.9126 180.247C64.7719 177.108 66.2166 170.555 63.3273 165.504L43.89 131.65L67.9239 106.942C68.7119 106.123 68.7119 104.758 67.9239 103.939L53.8713 88.7864C53.0833 87.9673 51.77 87.9673 50.982 88.7864C50.194 89.6054 50.194 90.9705 50.982 91.7896L63.7213 105.577L41.0006 128.92C40.738 128.92 40.344 129.056 40.0813 129.193C39.8186 129.33 39.556 129.603 39.4246 129.876L24.8467 132.333L4.22735 109.126C3.43935 108.307 2.12602 108.171 1.33802 108.99C0.550026 109.809 0.41869 111.174 1.20669 111.993L20.7753 134.107Z" fill="white" stroke="#BBB4B5" stroke-width="0.5206" stroke-miterlimit="10"/>
</svg>
