<svg width="11" height="14" viewBox="0 0 11 14" fill="none" xmlns="http://www.w3.org/2000/svg">
<path d="M5.40891 3.29426H5.40885C5.01278 3.29426 4.62547 3.40775 4.29588 3.62058C3.96627 3.83341 3.70909 4.13612 3.55715 4.49061C3.40519 4.84514 3.36541 5.23535 3.4429 5.61184C3.52039 5.98831 3.7116 6.33386 3.99207 6.60491C4.27252 6.87593 4.62962 7.06031 5.01812 7.13499C5.40661 7.20967 5.80931 7.17135 6.17537 7.02482C6.54144 6.87829 6.85461 6.63002 7.07509 6.31114C7.29558 5.99224 7.41339 5.61712 7.41339 5.23322V5.23316C7.41278 4.71851 7.20095 4.2255 6.82498 3.86216C6.44907 3.49888 5.93977 3.29485 5.40891 3.29426ZM5.40879 6.12315C5.22592 6.12314 5.0473 6.07072 4.89552 5.97272C4.74374 5.87471 4.62572 5.7356 4.55611 5.57318C4.48651 5.41079 4.46833 5.23221 4.50379 5.05995C4.53925 4.88767 4.62682 4.72916 4.75574 4.60458C4.88467 4.47997 5.04917 4.39492 5.2285 4.36045C5.40784 4.32598 5.59372 4.34369 5.76255 4.41127C5.93136 4.47884 6.07536 4.59316 6.17654 4.7395C6.27769 4.88579 6.33156 5.05758 6.33157 5.23316C6.33129 5.46852 6.23444 5.69455 6.06163 5.86154C5.88876 6.0286 5.65401 6.12288 5.40879 6.12315Z" fill="#77B95E" stroke="#77B95E" stroke-width="0.1"/>
<path d="M0.921402 8.05763L0.921405 8.05764L4.60814 13.5272C4.69519 13.6563 4.81407 13.7622 4.95387 13.8355C5.09367 13.9087 5.25005 13.947 5.40886 13.947C5.56767 13.947 5.72405 13.9087 5.86384 13.8355C6.00365 13.7622 6.12253 13.6563 6.20957 13.5272L9.89643 8.05764C10.5672 7.06248 10.8638 5.87449 10.7362 4.69283C10.6086 3.51118 10.0645 2.40816 9.1957 1.56854L9.15885 1.60668L9.1957 1.56854C8.25911 0.663658 7.00921 0.126399 5.68733 0.0599879C4.36545 -0.00642323 3.06473 0.402686 2.03622 1.20874C1.00767 2.01483 0.324153 3.16088 0.11817 4.42594C-0.087818 5.69102 0.198451 6.98485 0.921402 8.05763ZM8.99093 7.48365L5.40887 12.7977L1.82679 7.48365C0.731397 5.85858 0.966104 3.68352 2.3857 2.31157C2.78254 1.92806 3.25376 1.62374 3.7725 1.41609C4.29124 1.20844 4.84729 1.10154 5.40887 1.10154C5.97046 1.10154 6.5265 1.20844 7.04525 1.41609C7.56398 1.62374 8.03521 1.92806 8.43205 2.31157C9.85164 3.68352 10.0863 5.85858 8.99093 7.48365Z" fill="#77B95E" stroke="#77B95E" stroke-width="0.1"/>
</svg>
