<svg width="25" height="22" viewBox="0 0 25 22" fill="none" xmlns="http://www.w3.org/2000/svg">
<path d="M24.75 0H0.25C0.1125 0 0 0.1125 0 0.25V2.25C0 2.3875 0.1125 2.5 0.25 2.5H24.75C24.8875 2.5 25 2.3875 25 2.25V0.25C25 0.1125 24.8875 0 24.75 0ZM24.75 19.5H0.25C0.1125 19.5 0 19.6125 0 19.75V21.75C0 21.8875 0.1125 22 0.25 22H24.75C24.8875 22 25 21.8875 25 21.75V19.75C25 19.6125 24.8875 19.5 24.75 19.5ZM24.75 9.75H0.25C0.1125 9.75 0 9.8625 0 10V12C0 12.1375 0.1125 12.25 0.25 12.25H24.75C24.8875 12.25 25 12.1375 25 12V10C25 9.8625 24.8875 9.75 24.75 9.75Z" fill="black"/>
</svg>
