<svg width="417" height="597" viewBox="0 0 417 597" fill="none" xmlns="http://www.w3.org/2000/svg">
<path d="M296.071 78.5704L300.533 123.721L329.142 152.23L335.704 150.048L356.439 126.313C356.439 126.313 393.448 50.1977 392.923 49.3792C392.398 48.6972 363.657 1.22749 363.657 1.22749L301.977 66.2937L296.071 78.5704Z" fill="#F9F9F9"/>
<path d="M321.721 387.195L313.958 402.371L356.023 425.619L363.786 410.443L321.721 387.195Z" fill="#F9F9F9"/>
<path d="M368.113 411.572L360.35 426.749L375.878 435.331L383.641 420.154L368.113 411.572Z" fill="#F9F9F9"/>
<path d="M385.368 419.941L375.571 439.09L407.203 456.573L417 437.424L385.368 419.941Z" fill="#F9F9F9"/>
<path d="M265.099 2.86455L262.736 26.0538L265.492 30.9644L277.304 28.7819L301.451 0L265.099 2.86455Z" fill="#F9F9F9"/>
<path d="M374.025 3.41022C378.88 9.27573 384.786 23.3257 384.786 23.3257L401.322 26.3266C401.322 26.3266 405.652 4.77429 405.521 4.50148C405.39 4.09225 374.025 3.41022 374.025 3.41022Z" fill="#F9F9F9"/>
<path d="M401.059 39.0128L394.497 49.1069L401.453 52.7899L401.059 39.0128Z" fill="#F9F9F9"/>
<path d="M386.754 160.96L395.022 201.337C395.022 201.337 404.34 205.02 404.34 204.747C404.34 204.338 408.539 145.41 408.539 144.728C408.539 144.182 402.765 135.589 402.765 135.589L386.754 160.96Z" fill="#F9F9F9"/>
<path d="M389.51 484.928C385.441 492.703 375.993 495.431 368.512 491.203L317.855 462.011C310.375 457.783 307.75 447.961 311.818 440.186C315.887 432.411 325.336 429.683 332.816 433.912L383.473 463.103C390.953 467.468 393.578 477.153 389.51 484.928Z" fill="#F9F9F9"/>
<path d="M20.8702 447.007C22.3137 447.689 141.344 518.075 141.344 518.075L150.662 537.718L133.47 590.916C133.47 590.916 16.2769 597.873 14.8333 594.054C13.3897 590.234 -0.258734 510.845 0.00373643 508.663C0.134972 506.48 20.8702 447.007 20.8702 447.007Z" fill="#F9F9F9"/>
<path d="M354.47 587.779C354.47 587.779 348.302 581.913 348.171 581.368C348.04 580.822 348.302 574.002 348.302 574.002C348.302 574.002 349.615 558.315 363.526 558.451C366.806 558.451 367.856 559.543 372.45 571.137C373.631 574.138 376.255 576.321 379.274 576.594C381.898 576.866 384.786 575.775 386.623 570.864C387.804 567.864 387.148 564.317 385.048 561.862L373.631 548.221C370.219 544.129 369.694 538.127 372.45 533.625L406.046 477.016L411.951 580.959C411.951 580.959 403.29 598.555 399.222 596.782C395.153 594.872 354.47 587.779 354.47 587.779Z" fill="#F9F9F9"/>
<path d="M208.799 480.426L214.836 478.789L237.671 492.566L226.91 513.846L231.897 516.437L229.666 521.485L199.35 502.933L208.799 480.426Z" fill="#F9F9F9"/>
<path d="M230.453 444.824C230.453 444.824 241.608 410.585 247.776 410.313C247.776 410.313 252.763 410.449 257.488 413.586C262.081 416.724 263.656 422.998 261.031 428.045L254.6 440.459C251.32 446.87 244.364 450.553 237.54 449.189C234.784 448.507 232.29 447.279 230.453 444.824Z" fill="#F9F9F9"/>
<path d="M261.556 383.85L257.225 394.763L268.905 399.264L281.372 389.988L288.065 394.49L297.777 391.625L305.651 381.667L303.42 377.166L261.556 383.85Z" fill="#F9F9F9"/>
<path d="M284.653 352.477L278.747 348.521L333.735 230.801L338.066 230.119L343.709 237.622L334.654 246.079L284.653 352.477Z" fill="#F9F9F9"/>
<path d="M280.716 513.028C283.865 515.756 287.671 517.529 291.477 519.439C293.971 520.667 296.858 521.894 299.351 520.667C302.238 519.303 303.157 515.21 301.976 512.073C300.926 508.936 298.433 506.617 295.939 504.434C291.477 500.342 284.784 495.295 278.616 498.978C273.104 501.979 277.172 509.89 280.716 513.028Z" fill="#F9F9F9"/>
<path d="M307.357 503.479C311.557 504.843 316.15 504.57 320.612 503.752C323.63 503.206 326.518 502.388 329.405 501.433C330.848 500.887 332.292 500.341 333.079 498.977C334.261 496.931 332.948 494.203 330.98 492.975C329.011 491.748 326.649 491.748 324.287 491.748C322.056 491.748 319.562 491.748 317.594 490.656C314.838 489.156 313.525 486.019 311.032 484.245C308.538 482.472 304.995 482.199 302.108 483.018C296.727 484.655 296.596 492.839 298.958 497.068C300.927 500.205 304.076 502.388 307.357 503.479Z" fill="#F9F9F9"/>
</svg>
