<svg width="16" height="16" viewBox="0 0 16 16" fill="none" xmlns="http://www.w3.org/2000/svg">
<path d="M12 5.33329H11.3333V3.99996C11.3333 2.15996 9.84 0.666626 8 0.666626C6.16 0.666626 4.66666 2.15996 4.66666 3.99996V5.33329H4C3.26666 5.33329 2.66666 5.93329 2.66666 6.66663V13.3333C2.66666 14.0666 3.26666 14.6666 4 14.6666H12C12.7333 14.6666 13.3333 14.0666 13.3333 13.3333V6.66663C13.3333 5.93329 12.7333 5.33329 12 5.33329ZM8 11.3333C7.26666 11.3333 6.66666 10.7333 6.66666 9.99996C6.66666 9.26663 7.26666 8.66663 8 8.66663C8.73333 8.66663 9.33333 9.26663 9.33333 9.99996C9.33333 10.7333 8.73333 11.3333 8 11.3333ZM10.0667 5.33329H5.93333V3.99996C5.93333 2.85996 6.86 1.93329 8 1.93329C9.14 1.93329 10.0667 2.85996 10.0667 3.99996V5.33329Z" fill="#656F77"/>
</svg>
