<svg width="28" height="28" viewBox="0 0 28 28" fill="none" xmlns="http://www.w3.org/2000/svg">
<path fill-rule="evenodd" clip-rule="evenodd" d="M8.94331 25.6666H19.0544C23.0097 25.6666 25.6661 22.8921 25.6661 18.7637V9.23609C25.6661 5.10772 23.0097 2.33325 19.0556 2.33325H8.94331C4.98914 2.33325 2.33276 5.10772 2.33276 9.23609V18.7637C2.33276 22.8921 4.98914 25.6666 8.94331 25.6666ZM9.91411 12.8333C8.3057 12.8333 6.99878 11.5246 6.99878 9.91665C6.99878 8.30866 8.3057 6.99998 9.91411 6.99998C11.5214 6.99998 12.8295 8.30866 12.8295 9.91665C12.8295 11.5246 11.5214 12.8333 9.91411 12.8333ZM23.1232 17.4229C23.5138 18.4247 23.3109 19.6286 22.8932 20.6207C22.3982 21.8006 21.4502 22.694 20.2559 23.0841C19.7257 23.2575 19.1696 23.3333 18.6147 23.3333H8.78232C7.80389 23.3333 6.93809 23.0985 6.22832 22.6615C5.78369 22.387 5.70509 21.7537 6.03475 21.3431C6.58614 20.6568 7.13049 19.9682 7.67953 19.2735C8.72601 17.9443 9.43108 17.559 10.2148 17.8973C10.5327 18.037 10.8518 18.2465 11.1803 18.468C12.0555 19.0628 13.2721 19.8803 14.8746 18.9929C15.9713 18.3787 16.6073 17.3251 17.1612 16.4077L17.1705 16.3923C17.2098 16.3279 17.2487 16.2636 17.2874 16.1994L17.2875 16.1994C17.4736 15.8914 17.6573 15.5875 17.865 15.3075C18.1255 14.9572 19.091 13.8615 20.3416 14.6417C21.1382 15.1329 21.8081 15.7975 22.5249 16.5091C22.7982 16.7812 22.993 17.0906 23.1232 17.4229Z" fill="#9E9E9E"/>
</svg>
