<svg width="28" height="28" viewBox="0 0 28 28" fill="none" xmlns="http://www.w3.org/2000/svg">
<path d="M10.6353 16.5515C6.489 17.0975 3.5 18.62 3.5 20.4167C3.5 22.6718 8.2005 24.5 14 24.5C19.7995 24.5 24.5 22.6718 24.5 20.4167C24.5 18.62 21.511 17.0975 17.3647 16.5515" stroke="#4E60FF" stroke-width="1.5" stroke-linecap="round" stroke-linejoin="round"/>
<path fill-rule="evenodd" clip-rule="evenodd" d="M21 9.13854C21 5.38071 17.8663 2.33337 14 2.33337C10.1337 2.33337 7 5.38071 7 9.13854C7 14.2427 14 19.8334 14 19.8334C14 19.8334 21 14.2427 21 9.13854Z" stroke="#4E60FF" stroke-width="1.5" stroke-linecap="round" stroke-linejoin="round"/>
<path d="M15.65 7.68342C16.5613 8.59464 16.5613 10.072 15.65 10.9833C14.7388 11.8945 13.2614 11.8945 12.3502 10.9833C11.4389 10.072 11.4389 8.59464 12.3502 7.68342C13.2614 6.77219 14.7388 6.77219 15.65 7.68342Z" stroke="#4E60FF" stroke-width="1.5" stroke-linecap="round" stroke-linejoin="round"/>
</svg>
