<svg width="125" height="219" viewBox="0 0 125 219" fill="none" xmlns="http://www.w3.org/2000/svg">
<path fill-rule="evenodd" clip-rule="evenodd" d="M11 19.9506C16.0533 19.4489 20 15.1853 20 10C20 4.47715 15.5228 0 10 0C4.47715 0 0 4.47715 0 10C0 15.1853 3.94668 19.4489 9 19.9506V30C9 30.5523 9.44771 31 10 31C10.5523 31 11 30.5523 11 30V19.9506Z" fill="#C91C1C"/>
<circle cx="99" cy="193" r="26" fill="#1A1A1A" fill-opacity="0.2"/>
<path fill-rule="evenodd" clip-rule="evenodd" d="M100 181.951C105.053 181.449 109 177.185 109 172C109 166.477 104.523 162 99 162C93.4772 162 89 166.477 89 172C89 177.185 92.9467 181.449 98 181.951V192C98 192.552 98.4477 193 99 193C99.5523 193 100 192.552 100 192V181.951Z" fill="#C91C1C"/>
<circle cx="10" cy="10" r="5" fill="white"/>
<circle cx="99" cy="172" r="5" fill="white"/>
<path d="M27.4591 173.815C27.256 173.699 27.0998 173.516 27.0176 173.298C26.9714 173.175 26.9499 173.044 26.9544 172.912C26.9589 172.781 26.9892 172.651 27.0438 172.532C27.0983 172.412 27.1759 172.304 27.2721 172.215C27.3684 172.125 27.4814 172.055 27.6046 172.009L34.1542 169.58L33.0693 162.774C33.0479 162.644 33.0525 162.511 33.0827 162.382C33.1129 162.254 33.1682 162.133 33.2453 162.026C33.3225 161.919 33.42 161.829 33.5322 161.76C33.6444 161.691 33.7692 161.645 33.8993 161.624C34.0343 161.596 34.1736 161.597 34.3084 161.625C34.4432 161.654 34.5706 161.71 34.6826 161.791C34.7947 161.871 34.8889 161.974 34.9594 162.092C35.0299 162.21 35.0752 162.342 35.0924 162.479L36.3073 170.085C36.3462 170.313 36.3046 170.548 36.1897 170.749C36.0747 170.95 35.8935 171.105 35.677 171.187L28.3583 173.914C28.2111 173.97 28.053 173.99 27.8968 173.972C27.7406 173.955 27.5906 173.901 27.4591 173.815Z" fill="#020202"/>
</svg>
